<?xml version="1.0" standalone="no"?>
<!DOCTYPE svg PUBLIC "-//W3C//DTD SVG 20010904//EN"
 "http://www.w3.org/TR/2001/REC-SVG-20010904/DTD/svg10.dtd">
<svg version="1.0" xmlns="http://www.w3.org/2000/svg"
 width="460.000000pt" height="454.000000pt" viewBox="0 0 460.000000 454.000000"
 preserveAspectRatio="xMidYMid meet">
<metadata>
Created by potrace 1.14, written by Peter Selinger 2001-2017
</metadata>
<g transform="translate(0.000000,454.000000) scale(0.100000,-0.100000)"
fill="#000000" stroke="none">
<path d="M0 3955 c0 -502 4 -607 22 -554 3 9 10 9 23 2 11 -6 48 -13 82 -17
91 -10 93 -6 89 211 -1 96 1 176 6 179 4 3 8 -4 8 -15 0 -24 19 -38 29 -22 10
16 46 -24 65 -74 9 -22 22 -96 31 -165 13 -110 24 -158 66 -285 6 -16 12 -52
14 -80 2 -27 18 -104 35 -170 17 -66 32 -148 35 -182 2 -33 9 -70 16 -81 10
-17 10 -24 -4 -45 -9 -14 -16 -33 -16 -43 0 -30 -17 -95 -36 -139 -12 -29 -14
-44 -7 -56 21 -33 -6 -89 -43 -89 -30 0 -43 18 -104 138 -28 56 -55 110 -61
120 -15 29 -48 103 -84 191 -36 86 -107 211 -132 232 -8 6 -14 20 -14 30 0 10
-4 21 -10 24 -7 4 -10 -192 -9 -582 0 -459 3 -584 12 -570 92 142 92 142 186
205 99 65 111 71 111 48 0 -13 -87 -91 -136 -123 -18 -12 -18 -13 -1 -23 16
-10 14 -13 -14 -37 -17 -14 -41 -50 -54 -79 -16 -37 -35 -61 -64 -80 l-41 -27
0 -96 c1 -108 2 -108 62 -3 19 33 34 50 40 44 9 -9 -59 -150 -88 -183 -10 -11
-14 -42 -14 -102 l0 -86 34 33 c20 21 44 63 61 108 15 40 38 96 51 125 13 28
30 76 38 106 20 78 31 93 68 101 73 14 118 38 124 65 16 81 65 104 123 56 35
-30 37 -38 16 -79 -20 -37 -12 -46 40 -46 40 0 75 -18 75 -40 0 -4 17 -11 38
-15 20 -4 47 -16 59 -27 15 -14 28 -18 44 -13 17 6 21 4 16 -8 -4 -10 14 -30
54 -61 57 -44 75 -76 44 -76 -8 0 -15 4 -15 8 0 5 -11 15 -25 22 -24 13 -28
11 -60 -20 -44 -42 -45 -58 -4 -52 22 3 36 -1 51 -18 16 -17 29 -21 57 -18 20
3 44 8 54 13 14 6 20 3 23 -12 3 -11 20 -27 37 -37 18 -9 66 -34 107 -56 41
-22 87 -40 102 -40 36 0 96 -29 103 -50 3 -9 23 -31 45 -49 34 -27 53 -61 34
-61 -13 0 -50 25 -62 42 -18 24 -71 24 -97 -2 -11 -11 -37 -36 -58 -56 -47
-44 -45 -68 4 -72 23 -2 45 -12 59 -28 30 -31 70 -33 70 -3 0 17 5 20 21 16
19 -5 21 -2 15 24 -5 27 -3 29 24 29 23 0 30 4 30 20 0 24 22 26 40 5 7 -8 21
-15 31 -15 10 0 21 -4 24 -10 12 -20 22 -9 48 47 22 49 24 60 13 73 -8 8 -28
43 -44 76 -17 34 -38 64 -47 67 -8 4 -15 18 -15 34 0 28 -21 67 -46 88 -7 6
-14 21 -16 34 -6 48 -30 48 -122 1 -47 -23 -91 -49 -97 -56 -12 -14 4 -53 27
-67 15 -9 19 -47 6 -47 -12 0 -52 44 -52 56 0 6 -18 28 -40 49 -22 21 -40 45
-40 52 0 7 -4 21 -9 31 -5 9 -17 35 -27 57 -19 43 -129 165 -149 165 -7 0 -18
14 -25 30 -7 17 -26 38 -41 46 -18 9 -29 23 -29 35 0 16 -5 20 -27 17 -20 -2
-32 -12 -43 -35 -8 -18 -21 -33 -27 -33 -7 0 -20 -12 -30 -26 -15 -23 -18 -24
-28 -10 -7 9 -24 16 -39 16 -21 0 -26 5 -26 25 0 14 5 25 10 25 6 0 10 16 10
35 0 28 4 35 20 35 11 0 20 5 20 10 0 6 8 10 18 10 14 0 19 8 19 28 0 21 -11
36 -41 59 -23 17 -51 34 -64 37 -15 5 -22 15 -22 32 0 20 5 24 30 24 22 0 33
-6 39 -22 5 -13 27 -40 49 -62 51 -49 74 -45 128 23 21 28 47 50 57 51 12 0
17 6 15 18 -1 9 1 23 6 30 15 25 -4 62 -54 101 -34 27 -56 38 -70 34 -17 -5
-20 -1 -20 27 0 23 -5 33 -19 37 -11 3 -21 12 -23 21 -2 11 -14 16 -33 17 -26
0 -30 3 -27 24 1 14 4 27 6 29 6 5 47 -17 64 -35 22 -22 30 -6 21 47 -7 45 1
143 13 155 2 3 34 -7 69 -21 78 -32 185 -43 213 -21 17 12 13 14 -41 13 -93
-1 -165 40 -291 166 -122 122 -155 180 -160 278 -5 101 30 195 89 232 50 32
92 32 156 3 32 -15 79 -33 105 -41 25 -8 59 -21 75 -29 15 -8 40 -15 55 -15
22 0 37 -14 82 -76 31 -42 61 -94 66 -115 10 -38 11 -39 34 -24 33 22 41 86
15 131 -27 48 -25 103 6 144 18 25 25 47 25 80 0 57 42 130 121 214 56 59 74
84 66 92 -3 3 -23 6 -46 7 -22 1 -41 6 -41 11 0 6 -12 19 -26 31 -24 19 -25
23 -15 65 5 24 9 46 7 47 -9 9 -39 -13 -52 -38 -14 -29 -28 -36 -38 -21 -3 5
11 39 29 78 36 72 42 99 25 109 -9 6 -6 14 36 110 10 22 18 55 18 73 0 17 5
32 11 32 6 0 18 8 26 18 28 31 113 77 144 77 65 1 175 18 175 28 0 6 23 8 60
4 49 -4 60 -2 60 10 0 11 6 14 23 9 12 -4 63 -9 112 -12 50 -2 111 -9 137 -15
58 -13 86 -5 99 29 l11 27 30 -37 c31 -40 74 -51 84 -24 11 28 36 26 71 -4 68
-60 110 -80 173 -84 33 -2 66 -8 74 -15 23 -19 47 -78 76 -190 40 -151 44
-160 87 -178 54 -22 129 -81 159 -125 29 -42 28 -47 -30 -113 -25 -29 -26 -29
-26 -7 0 29 -36 100 -67 131 -24 24 -24 24 -29 4 -3 -12 -23 -35 -44 -52 -52
-41 -170 -199 -170 -226 0 -34 45 -77 77 -73 28 3 38 17 48 61 6 32 25 35 50
7 14 -16 15 -24 6 -51 -9 -27 -8 -33 11 -49 21 -17 21 -19 5 -43 -15 -23 -15
-25 2 -30 14 -3 22 -24 34 -83 8 -44 20 -97 26 -119 17 -66 13 -146 -10 -189
-11 -21 -26 -68 -32 -104 -13 -74 -28 -87 -47 -42 -10 25 -10 33 4 52 9 13 28
38 41 57 25 34 33 75 16 85 -5 3 -26 -6 -47 -21 -22 -14 -58 -34 -82 -44 -42
-18 -43 -19 -36 -56 3 -21 12 -48 20 -60 33 -52 4 -113 -53 -113 -12 0 -25 -4
-28 -10 -3 -5 -17 -10 -31 -10 -14 0 -22 -4 -19 -10 3 -5 24 -10 45 -10 34 0
41 -4 46 -25 8 -33 18 -32 67 10 48 42 61 44 53 10 -18 -70 -81 -169 -81 -126
0 5 -3 13 -7 17 -5 4 -8 -2 -8 -14 0 -12 -9 -31 -20 -42 -15 -15 -16 -20 -6
-20 23 0 30 -20 15 -46 -11 -21 -10 -26 6 -37 15 -12 17 -25 13 -98 -6 -102
-38 -177 -89 -212 -59 -40 -58 -40 -69 -13 -11 31 -25 33 -40 6 -9 -17 -20
-19 -121 -18 -60 1 -112 5 -115 9 -2 4 -18 3 -34 -3 -38 -13 -60 -5 -60 21 0
23 -34 45 -56 37 -8 -3 -29 3 -47 14 -17 11 -41 20 -52 20 -11 0 -33 9 -50 20
-22 14 -39 18 -72 13 -39 -5 -43 -4 -43 16 0 12 6 21 15 21 8 0 15 5 15 10 0
6 -15 10 -32 10 -49 0 -77 10 -80 28 -4 21 -82 26 -99 6 -16 -20 -48 -17 -93
7 -33 17 -43 19 -65 9 -20 -9 -27 -9 -36 2 -5 8 -18 17 -28 21 -22 8 -19 35 5
51 13 8 26 6 53 -7 44 -21 62 -14 35 13 -21 21 -84 28 -95 10 -3 -5 -15 -10
-26 -10 -28 0 -24 38 7 62 23 19 24 22 10 36 -9 9 -19 12 -23 8 -5 -5 -2 -11
5 -13 6 -3 12 -8 12 -13 0 -11 -39 -20 -45 -10 -2 4 -18 10 -35 13 -36 8 -39
24 -5 33 30 7 33 24 5 31 -11 3 -20 12 -20 19 0 8 -6 17 -14 20 -10 4 -13 15
-9 40 5 30 3 34 -16 34 -12 0 -38 12 -57 26 -19 15 -36 25 -38 23 -6 -6 17
-87 37 -133 9 -21 17 -42 17 -46 0 -4 10 -25 23 -47 61 -110 83 -142 99 -146
10 -3 18 -12 18 -21 0 -12 10 -16 35 -16 28 0 35 -4 35 -20 0 -22 20 -26 38
-8 9 9 13 7 18 -5 4 -10 17 -17 34 -17 21 0 29 -6 34 -24 4 -17 17 -28 41 -36
19 -6 35 -17 35 -24 0 -8 10 -11 31 -8 22 3 30 1 25 -7 -4 -6 -14 -11 -22 -11
-8 0 -14 -7 -14 -16 0 -13 7 -15 29 -11 20 4 33 1 45 -12 9 -10 13 -20 10 -24
-9 -8 6 -47 17 -47 6 0 17 -7 25 -15 10 -9 34 -15 63 -15 26 0 53 -6 59 -12 7
-7 34 -20 59 -28 26 -8 55 -27 66 -41 18 -25 18 -29 4 -86 -24 -92 -79 -178
-135 -211 -77 -45 -131 -86 -137 -104 -4 -10 -13 -18 -20 -18 -11 0 -11 -8 2
-45 13 -41 43 -72 55 -60 12 12 91 -39 114 -74 25 -38 25 -40 8 -66 l-17 -26
-39 38 -39 38 6 -30 c4 -16 14 -40 21 -52 8 -12 14 -30 14 -40 0 -10 9 -31 21
-48 11 -16 35 -59 53 -95 71 -140 68 -135 80 -117 6 8 16 23 22 33 9 16 13 14
33 -19 32 -53 36 -95 12 -134 -28 -44 -51 -43 -51 1 0 43 -17 89 -29 81 -5 -3
-12 -20 -16 -38 -16 -78 -31 -88 -53 -38 -7 17 -51 66 -98 110 -46 44 -84 87
-84 96 0 19 -31 75 -41 75 -4 0 -10 15 -13 34 -6 33 -21 46 -53 46 -20 0 -10
-44 20 -82 59 -75 67 -87 67 -101 0 -8 18 -31 40 -51 43 -39 54 -64 21 -46
-11 5 -29 10 -40 10 -32 0 -28 -47 4 -62 17 -7 25 -19 25 -35 0 -38 58 -103
91 -103 19 0 30 -6 34 -20 3 -11 18 -27 33 -36 33 -20 102 -106 102 -128 0
-20 0 -20 37 -1 53 26 81 1 60 -54 -11 -29 -9 -34 20 -63 l32 -32 53 13 c29 7
68 18 85 24 24 8 36 8 44 0 16 -16 4 -58 -23 -83 -16 -14 -22 -30 -20 -50 2
-20 -2 -32 -12 -36 -9 -3 -16 -15 -16 -26 0 -24 -18 -58 -30 -58 -5 0 -13 12
-16 28 -13 54 -47 103 -76 109 -20 4 -28 11 -28 27 0 24 -10 38 -51 74 -25 22
-28 22 -68 8 -38 -13 -43 -13 -47 2 -13 44 -33 67 -77 91 -26 14 -54 36 -63
49 -15 22 -44 30 -44 13 0 -18 55 -100 67 -101 7 0 14 -27 19 -67 5 -53 3 -73
-9 -95 -13 -23 -13 -29 -2 -38 28 -23 50 -8 50 34 0 47 20 58 37 21 11 -25 10
-30 -15 -51 -29 -25 -36 -54 -13 -54 7 0 19 -14 26 -31 14 -33 5 -48 -30 -49
-16 -1 -50 -23 -50 -34 0 -3 239 -6 531 -6 456 0 530 2 526 14 -4 10 10 20 51
35 116 41 197 73 208 81 16 14 145 77 174 85 14 4 43 24 65 44 22 20 61 51 87
69 25 17 48 36 50 40 7 19 143 134 211 178 110 72 194 134 260 192 33 28 63
52 68 52 5 0 24 14 43 30 32 29 139 74 149 64 5 -5 -2 -29 -29 -108 -11 -33
-11 -42 1 -59 9 -12 15 -44 15 -72 0 -46 6 -59 61 -138 33 -48 64 -87 68 -87
5 0 21 -12 36 -26 l28 -25 46 20 46 20 3 70 c3 67 2 71 -19 71 -37 0 -95 39
-107 74 -17 47 -15 62 15 117 30 52 27 62 -19 73 -21 5 -28 2 -33 -14 -3 -11
-11 -20 -16 -20 -5 0 -9 -9 -9 -20 0 -13 -7 -20 -19 -20 -11 0 -23 -9 -26 -20
-7 -22 -13 -24 -34 -11 -15 10 -1 47 54 151 22 41 99 101 136 105 19 2 43 6
54 8 20 4 20 13 23 595 1 393 -1 592 -8 592 -5 0 -10 -12 -10 -28 0 -16 -8
-32 -19 -39 -16 -10 -26 -4 -74 46 -113 115 -194 315 -242 593 -8 48 -24 123
-35 167 -26 105 -26 111 8 111 54 0 130 -105 205 -285 14 -33 55 -122 91 -197
36 -76 66 -148 67 -160 0 -13 4 -32 9 -43 10 -24 13 425 3 452 -6 16 -8 15
-13 -5 -4 -20 -15 -9 -75 80 -90 133 -177 247 -212 280 -165 151 -183 172
-227 257 -24 47 -53 122 -64 166 -11 44 -31 100 -45 125 -46 82 -47 160 -3
160 17 0 27 11 42 43 17 37 23 42 56 45 30 3 38 8 47 33 7 21 18 31 41 36 22
4 39 17 56 44 13 22 31 40 39 40 8 1 20 3 25 4 6 1 17 3 25 4 9 0 21 13 27 27
10 21 9 27 -3 35 -11 7 -10 9 7 9 28 0 57 -34 50 -57 -3 -10 -16 -23 -28 -28
-25 -11 -27 -32 -10 -99 15 -55 33 -71 69 -59 25 9 29 16 36 69 5 32 14 65 22
73 28 28 95 -132 76 -182 -11 -28 -12 -72 -8 -277 2 -131 5 -151 30 -211 15
-36 27 -71 27 -77 0 -6 5 -14 10 -17 7 -4 10 202 10 609 l0 616 -2270 0 -2270
0 0 -565z m202 241 c24 -7 62 -18 84 -25 55 -15 71 -34 55 -64 -7 -13 -14 -36
-15 -52 -2 -15 -14 -36 -27 -46 -21 -16 -22 -20 -10 -42 15 -29 5 -61 -11 -33
-10 18 -43 21 -54 5 -10 -17 -50 36 -89 120 -41 86 -41 90 -14 125 24 30 25
30 81 12z m3012 -1637 c31 -25 56 -69 56 -101 0 -13 16 -46 35 -73 19 -28 50
-72 70 -100 60 -86 45 -128 -61 -162 -81 -26 -274 -63 -328 -63 -20 0 -46 4
-56 10 -22 12 -40 61 -33 88 6 26 -22 79 -46 87 -39 12 -79 102 -60 136 12 24
56 25 89 2 30 -20 43 -40 50 -73 3 -14 17 -30 33 -38 30 -15 45 -7 124 65 26
24 42 31 59 27 26 -7 51 25 33 43 -10 10 -39 106 -39 130 0 13 27 43 39 43 5
0 20 -9 35 -21z m903 -298 c26 -39 24 -59 -14 -108 -27 -37 -70 -44 -97 -17
-23 22 -20 33 19 94 19 30 35 58 35 63 0 20 36 -1 57 -32z m-1322 -147 c44
-47 23 -112 -41 -132 -35 -10 -41 -9 -62 11 -20 18 -23 29 -19 60 6 46 41 87
74 87 13 0 35 -12 48 -26z m-2028 -254 c4 -16 14 -20 49 -20 41 0 44 -2 44
-26 0 -15 12 -38 28 -53 15 -16 40 -43 56 -62 16 -19 37 -38 47 -44 29 -17
108 -131 99 -145 -9 -15 -70 14 -70 34 0 7 -7 19 -16 26 -8 8 -21 27 -28 44
-17 41 -112 136 -147 148 -17 6 -31 21 -38 39 -5 16 -21 34 -35 41 -29 12 -35
38 -10 38 9 0 18 -9 21 -20z m3001 -482 c7 -7 12 -20 12 -30 0 -24 28 -36 82
-36 26 1 54 -5 62 -12 18 -14 36 -72 36 -116 0 -54 -17 -65 -107 -71 -92 -5
-137 11 -201 73 -50 49 -72 52 -122 15 -46 -33 -60 -33 -60 4 0 17 9 29 30 40
17 9 34 13 39 10 13 -8 74 21 96 45 11 12 32 28 47 36 16 8 28 21 28 28 0 24
39 33 58 14z m-344 -146 c0 -23 -5 -47 -10 -52 -5 -5 -54 -21 -109 -35 -54
-15 -118 -38 -141 -51 -50 -29 -88 -30 -132 -4 -41 25 -48 44 -28 75 24 36 59
50 171 69 55 9 125 23 155 31 85 21 95 18 94 -33z m-742 -199 c15 -15 33 -42
39 -62 15 -49 28 -60 40 -38 12 21 52 22 69 2 8 -9 10 -29 7 -52 -8 -48 -20
-59 -51 -45 -22 10 -25 8 -36 -19 -24 -57 -48 -67 -157 -63 -121 4 -126 8
-142 132 -12 96 -9 116 17 128 137 58 168 61 214 17z m251 -481 c10 -9 17 -29
17 -52 0 -37 1 -38 40 -42 22 -2 48 0 58 3 10 4 44 10 75 14 47 6 58 5 63 -9
19 -50 -37 -91 -136 -99 -39 -3 -58 -11 -81 -33 -27 -26 -31 -27 -64 -15 -33
11 -37 10 -74 -19 l-39 -32 -68 14 c-64 12 -69 15 -72 41 -5 39 8 51 75 72 32
9 73 24 92 32 28 12 40 12 64 2 26 -11 31 -10 44 7 13 17 12 19 -14 22 -37 5
-50 17 -58 52 -11 48 2 71 33 64 15 -4 35 -14 45 -22z m-355 -398 c37 -10 21
-35 -33 -52 -27 -8 -70 -30 -94 -48 -24 -19 -48 -31 -52 -28 -5 3 -9 23 -9 44
0 31 6 43 28 58 41 29 107 40 160 26z"/>
<path d="M2065 3675 c-71 -9 -101 -18 -143 -43 -44 -27 -61 -31 -110 -30 -61
1 -135 -24 -161 -56 -19 -23 -5 -33 18 -12 12 11 27 15 44 11 14 -4 36 -1 49
6 12 7 39 14 58 14 19 1 69 7 110 14 106 18 168 25 223 24 31 0 47 4 47 13 0
7 2 18 5 26 3 8 -6 20 -22 29 -24 13 -41 14 -118 4z"/>
<path d="M1914 3469 c-43 -12 -128 -72 -132 -92 -5 -22 34 -23 46 -1 8 14 13
14 32 4 13 -7 45 -14 72 -16 56 -4 68 10 68 75 0 38 -2 41 -27 40 -16 0 -42
-5 -59 -10z"/>
<path d="M926 2096 c-26 -30 -63 -62 -82 -71 -40 -19 -43 -48 -6 -53 13 -2 26
-11 29 -20 4 -9 11 -20 17 -24 17 -12 54 -9 58 3 4 13 88 23 88 11 0 -4 -21
-20 -46 -35 l-46 -28 17 -26 c9 -14 32 -52 51 -84 37 -63 65 -80 93 -55 10 9
25 16 33 16 9 0 41 12 72 26 55 25 57 27 50 57 -10 45 -105 181 -130 185 -11
2 -28 -6 -39 -18 -19 -21 -45 -27 -45 -10 0 5 14 16 30 25 45 23 36 65 -21
101 -8 5 -19 18 -25 29 -21 38 -48 30 -98 -29z"/>
<path d="M340 1800 c-22 -22 -40 -46 -40 -54 0 -7 -7 -20 -17 -27 -19 -16
-113 -209 -113 -232 0 -8 -21 -46 -46 -84 -25 -37 -57 -96 -70 -131 -13 -34
-30 -73 -39 -85 -10 -14 -15 -45 -15 -90 0 -59 2 -67 18 -65 25 4 27 -37 3
-68 -20 -25 -21 -40 -21 -220 0 -173 2 -194 16 -194 14 0 16 8 10 46 -3 25 -1
65 4 90 6 25 12 98 15 164 5 142 11 178 34 209 34 45 70 -4 42 -57 -6 -9 -20
-48 -32 -87 -21 -66 -23 -92 -20 -245 4 -153 3 -154 -34 -193 l-36 -37 4 -107
c2 -74 6 -101 11 -85 7 18 14 22 30 18 11 -3 24 -6 29 -6 11 0 8 -28 -5 -50
-17 -27 0 -39 20 -15 10 11 34 34 55 50 44 32 49 29 67 -40 6 -22 15 -51 20
-65 5 -14 11 -51 15 -82 l6 -58 71 0 c52 0 69 3 65 12 -2 7 -12 49 -22 93 -9
44 -23 91 -30 105 -11 20 -11 31 -1 55 11 25 10 36 -3 65 -8 19 -15 51 -15 70
-1 44 -27 51 -59 16 -14 -14 -29 -26 -36 -26 -13 0 -15 32 -2 45 31 32 42 105
47 300 2 110 5 235 7 278 2 83 -6 106 -23 63 -6 -16 -17 -26 -30 -26 -11 0
-20 -3 -20 -7 0 -5 -11 -13 -25 -20 -23 -10 -25 -9 -25 17 0 24 7 30 51 49 29
11 57 21 63 21 19 0 65 49 72 78 4 15 15 39 25 54 11 14 19 30 19 36 0 5 16
29 35 53 19 24 35 49 35 55 0 6 9 23 20 37 11 14 20 34 20 45 0 18 -5 20 -67
16 -38 -3 -79 -6 -92 -8 -27 -3 -101 -81 -101 -107 0 -9 -7 -22 -15 -29 -13
-11 -13 -8 0 23 8 20 15 47 15 60 0 13 5 28 12 35 6 6 8 15 4 19 -4 5 -23 -10
-42 -31 -31 -36 -34 -37 -34 -16 0 31 46 91 65 84 16 -6 85 45 85 63 0 16 46
102 67 125 15 17 33 16 33 -3 0 -5 -13 -21 -30 -35 -23 -21 -27 -31 -20 -44 7
-13 4 -22 -10 -35 -42 -38 -14 -61 55 -45 22 5 67 10 101 10 60 0 61 0 88 42
16 24 26 52 24 67 -3 25 0 26 52 31 68 6 81 31 28 54 -45 19 -122 36 -162 36
-19 0 -43 9 -56 20 -13 11 -36 20 -52 20 -15 0 -28 5 -28 10 0 22 -32 8 -70
-30z"/>
<path d="M689 1502 c-52 -54 -119 -144 -119 -160 0 -6 -9 -16 -19 -22 -11 -5
-23 -20 -27 -32 -3 -13 -14 -34 -23 -48 -10 -14 -18 -40 -19 -59 -2 -19 -6
-39 -11 -45 -5 -6 -19 -42 -30 -81 -21 -68 -25 -108 -32 -386 -3 -105 14 -125
58 -72 l23 28 6 -23 c7 -23 13 -26 38 -16 21 8 22 90 2 110 -13 12 -13 19 0
50 9 21 12 48 8 68 -4 22 0 44 10 64 12 23 16 61 16 147 0 63 -3 115 -7 115
-12 0 -51 -65 -59 -95 -12 -50 -26 -10 -18 55 5 49 13 70 35 94 25 28 30 30
49 18 19 -11 26 -9 61 18 21 18 39 37 39 44 0 7 9 21 20 31 11 10 20 24 20 31
0 14 60 47 69 38 3 -3 -9 -19 -27 -35 -17 -16 -32 -34 -32 -41 0 -7 -9 -19
-20 -26 -11 -7 -20 -19 -20 -27 0 -12 15 -15 68 -16 37 -1 93 -3 125 -5 55 -4
100 8 94 24 -4 14 68 79 95 86 41 9 60 33 46 55 -26 42 -203 80 -266 58 -19
-7 -23 -5 -28 22 -4 17 -8 31 -10 31 -1 0 -19 -10 -39 -21 -44 -26 -53 -19
-36 27 7 20 11 37 9 40 -2 2 -25 -18 -49 -44z"/>
<path d="M726 1135 c-11 -8 -33 -15 -48 -15 -34 0 -68 -48 -68 -96 0 -17 -7
-50 -15 -73 -10 -29 -11 -49 -5 -66 6 -15 5 -46 0 -81 -5 -32 -7 -60 -5 -63 3
-2 22 12 43 32 53 52 68 49 82 -17 6 -30 18 -60 26 -67 9 -7 28 -38 44 -68 22
-45 26 -61 18 -81 -6 -16 -5 -58 3 -120 6 -52 13 -115 14 -140 4 -73 86 -280
111 -280 6 0 11 18 12 41 2 50 9 64 26 50 7 -6 16 -8 19 -4 4 3 17 -3 30 -15
l23 -22 12 47 c12 44 12 47 -23 105 -19 33 -35 65 -35 72 0 8 -6 19 -14 25 -9
8 -17 40 -20 84 -3 40 -7 91 -9 115 -2 24 -11 50 -20 59 -15 16 -18 15 -41 -6
-29 -27 -47 -24 -62 10 -45 99 -54 124 -54 159 l0 39 30 -17 c16 -9 30 -20 30
-24 0 -5 7 -8 16 -8 15 0 16 11 11 86 -2 47 -7 88 -10 91 -11 10 -56 -7 -77
-29 l-20 -22 0 31 c0 17 8 41 19 54 10 13 35 56 55 94 39 75 41 115 6 115 -10
0 -22 5 -25 10 -9 15 -57 12 -79 -5z"/>
<path d="M1398 1126 c-26 -19 -22 -43 10 -71 22 -20 24 -24 9 -25 -10 0 -20 7
-23 15 -6 16 -54 21 -54 7 0 -12 34 -42 48 -42 7 0 12 -3 12 -7 0 -5 9 -19 20
-33 17 -21 21 -23 30 -10 7 12 12 12 21 3 10 -10 9 -17 -5 -32 -11 -12 -16
-29 -13 -40 3 -11 -1 -28 -9 -38 -13 -17 -16 -16 -41 15 -19 21 -37 32 -54 32
-14 0 -34 9 -44 20 -22 24 -51 26 -59 4 -4 -10 4 -19 28 -29 18 -8 42 -27 52
-42 20 -30 43 -104 44 -140 0 -30 14 -29 28 2 15 31 25 32 46 0 10 -15 22 -22
31 -19 21 9 19 57 -5 87 -29 37 -25 52 8 29 28 -20 60 -30 123 -39 42 -6 62
13 36 32 -20 14 -22 35 -5 35 20 0 -18 32 -69 60 -57 31 -66 50 -24 50 38 0
38 9 6 60 -14 22 -25 48 -25 58 0 19 -17 37 -57 60 -28 15 -43 15 -65 -2z"/>
<path d="M1072 1063 c-7 -3 -19 -20 -27 -39 -8 -19 -31 -54 -52 -79 -32 -39
-42 -45 -76 -45 -38 0 -38 -1 -33 -30 3 -16 9 -43 12 -60 3 -16 15 -36 26 -44
18 -13 24 -13 43 0 12 8 37 14 56 14 52 -1 122 11 137 23 9 7 11 25 6 64 -4
34 -3 53 4 53 20 0 42 32 42 60 0 30 -7 31 -82 21 -5 -1 -8 -7 -8 -15 0 -8
-12 -24 -27 -36 -37 -29 -43 -7 -9 29 15 15 30 42 35 59 9 29 8 32 -12 31 -12
0 -28 -3 -35 -6z"/>
<path d="M1527 723 c-23 -22 7 -78 85 -157 l38 -39 20 23 c28 33 25 57 -12 90
-18 16 -49 42 -68 59 -35 31 -51 37 -63 24z"/>
<path d="M1098 609 c-2 -6 -23 -13 -47 -16 -50 -7 -74 -40 -53 -73 7 -12 9
-37 5 -65 -5 -39 -2 -49 17 -70 18 -19 27 -22 41 -15 23 13 50 12 69 0 13 -9
12 -12 -4 -25 -11 -8 -34 -15 -52 -15 -42 0 -48 -10 -33 -62 17 -63 36 -103
66 -138 23 -28 30 -31 65 -25 21 4 44 3 51 -3 7 -5 37 -12 69 -15 51 -5 57 -4
62 16 11 41 5 82 -19 142 -14 33 -25 68 -25 77 0 31 -39 47 -95 38 -27 -4 -54
-5 -59 -3 -15 10 24 25 45 18 28 -9 69 30 69 65 0 15 -11 43 -25 63 -13 20
-20 39 -15 42 16 10 11 44 -7 53 -28 14 -121 22 -125 11z"/>
<path d="M549 489 c-8 -5 -32 -9 -54 -9 -75 0 -116 -12 -132 -37 -14 -21 -14
-25 1 -42 9 -10 17 -37 17 -62 1 -24 11 -60 21 -80 15 -27 18 -41 10 -55 -6
-12 -6 -44 0 -89 5 -38 10 -80 10 -92 0 -23 2 -23 139 -23 76 0 139 2 139 5 0
3 -14 49 -30 102 -46 148 -50 164 -50 218 0 151 2 144 -28 159 -18 9 -33 11
-43 5z"/>
<path d="M1494 465 c-4 -8 -2 -21 3 -28 6 -6 23 -59 38 -117 27 -103 66 -190
85 -190 6 0 10 33 11 73 1 62 2 67 10 40 5 -18 14 -33 20 -33 6 0 24 -14 40
-31 l29 -31 0 46 c0 27 -9 64 -22 92 -22 43 -22 46 -5 58 9 8 17 26 17 43 0
32 -32 69 -49 59 -6 -4 -18 -3 -28 2 -21 11 -106 32 -128 32 -9 0 -18 -7 -21
-15z"/>
<path d="M4377 308 c-24 -24 -106 -103 -182 -176 l-138 -132 241 0 242 0 0
170 0 170 -44 0 c-24 0 -51 3 -59 6 -9 3 -32 -12 -60 -38z"/>
</g>
</svg>
