<?xml version="1.0" standalone="no"?>
<!DOCTYPE svg PUBLIC "-//W3C//DTD SVG 20010904//EN"
 "http://www.w3.org/TR/2001/REC-SVG-20010904/DTD/svg10.dtd">
<svg version="1.0" xmlns="http://www.w3.org/2000/svg"
 width="320.000000pt" height="320.000000pt" viewBox="0 0 320.000000 320.000000"
 preserveAspectRatio="xMidYMid meet">
<metadata>
Created by potrace 1.14, written by Peter Selinger 2001-2017
</metadata>
<g transform="translate(0.000000,320.000000) scale(0.100000,-0.100000)"
fill="#000000" stroke="none">
<path d="M0 1600 l0 -1600 1600 0 1600 0 0 1600 0 1600 -1600 0 -1600 0 0
-1600z m1464 1095 c32 -2 61 -6 64 -9 3 -3 14 -6 24 -6 10 0 18 -5 18 -12 0
-6 7 -20 16 -29 21 -23 27 -71 11 -81 -7 -4 -25 -8 -40 -8 -20 0 -30 -6 -34
-19 -3 -10 -14 -23 -26 -29 -18 -8 -10 -11 45 -17 36 -4 72 -4 79 0 8 5 10 4
5 -3 -4 -7 -2 -12 4 -12 6 0 9 -8 6 -18 -3 -9 -7 -42 -8 -72 -2 -62 -8 -79
-50 -132 -16 -21 -25 -38 -20 -38 6 0 13 6 16 13 3 6 4 -4 1 -23 -18 -125 -17
-166 4 -212 11 -26 26 -50 32 -54 8 -5 8 -1 0 14 -6 11 -10 40 -10 64 l1 43 8
-38 c8 -43 20 -60 21 -31 2 30 17 -24 18 -64 1 -25 6 -35 21 -39 27 -7 26 -10
-12 -45 -68 -60 -185 -124 -270 -147 -76 -20 -87 -20 -118 -7 -40 16 -88 58
-112 97 -22 35 -33 95 -19 103 19 12 13 38 -7 32 -15 -5 -19 4 -30 59 -10 56
-10 70 2 93 11 19 15 22 16 10 0 -10 5 -18 11 -18 6 0 8 -9 4 -20 -5 -14 -2
-20 10 -20 12 0 15 -5 10 -21 -7 -20 -4 -21 20 -15 26 7 27 5 20 -21 -6 -27
-6 -27 24 7 l31 35 0 -41 c0 -29 5 -44 16 -48 13 -5 15 -15 9 -54 -9 -62 9
-45 28 26 14 54 27 60 27 10 0 -15 5 -28 10 -28 12 0 12 11 4 62 -4 23 -11 35
-19 32 -16 -6 -23 12 -30 78 l-6 53 18 -37 c10 -21 21 -38 25 -38 15 0 21 77
10 130 -7 31 -12 64 -12 74 0 10 -9 31 -20 46 -25 36 -32 104 -16 166 11 46
14 49 48 52 26 2 38 9 47 28 15 34 16 32 -29 45 -43 13 -46 22 -30 78 12 44
39 73 59 65 9 -3 42 -7 75 -9z m-380 -580 c-24 -37 -13 -190 20 -287 25 -70
71 -132 107 -143 25 -8 28 -24 14 -90 -8 -38 -9 -80 -4 -115 15 -108 7 -241
-18 -310 -10 -27 -11 -70 -2 -76 12 -7 11 -41 -1 -49 -5 -3 -20 -3 -33 0 -18
5 -31 23 -52 71 -15 35 -34 64 -41 64 -20 0 -26 17 -12 39 15 25 -3 171 -27
216 l-16 30 1 -65 c2 -100 3 -98 -25 -92 -40 7 -77 -7 -111 -43 l-32 -35 -20
58 c-19 59 -18 93 7 217 5 28 15 129 21 225 11 187 26 274 55 330 9 19 19 37
21 39 4 4 136 40 152 40 9 1 8 -6 -4 -24z m824 -96 c39 -19 63 -38 67 -52 7
-24 18 -52 37 -92 6 -14 9 -28 5 -31 -3 -3 1 -24 9 -46 14 -41 20 -109 29
-308 2 -58 7 -146 11 -195 8 -103 0 -127 -59 -183 l-34 -33 -1 30 c-2 63 -46
114 -110 127 -29 6 -32 10 -33 43 -1 20 -1 50 0 67 1 18 -2 35 -8 38 -6 4 -8
13 -5 20 3 8 -2 38 -10 67 -9 29 -16 76 -16 105 0 45 3 53 23 57 22 6 77 91
65 102 -3 4 -20 -14 -38 -39 -21 -29 -41 -46 -58 -48 -20 -2 -27 -12 -41 -58
-21 -67 -73 -166 -106 -202 -25 -27 -125 -242 -125 -270 0 -34 -12 -48 -42
-48 -16 0 -27 -3 -25 -7 3 -5 -5 -9 -16 -9 -80 -5 -97 -8 -86 -15 16 -9 -36
-36 -76 -39 -35 -2 -75 9 -75 20 0 5 23 11 50 15 51 7 58 13 39 32 -7 7 -8 17
-3 25 5 7 9 22 10 33 1 11 7 52 13 90 7 39 14 133 15 210 2 114 7 149 23 185
18 42 25 47 79 64 78 24 127 50 192 100 30 22 66 49 81 58 26 18 26 18 38 -15
l11 -32 1 46 c1 31 7 52 21 67 11 11 29 50 41 86 12 37 27 66 34 66 6 0 39
-14 73 -31z m-319 -966 c-14 -3 -15 -11 -7 -49 12 -56 -4 -83 -23 -41 -9 21
-15 24 -26 16 -10 -9 -17 -8 -28 1 -13 11 -15 8 -15 -18 0 -25 -6 -32 -32 -41
-17 -6 -40 -19 -50 -28 -10 -9 -28 -21 -40 -27 -12 -6 -23 -17 -26 -23 -6 -21
23 -15 44 8 30 34 94 70 116 67 19 -3 19 -5 -10 -33 -49 -47 -71 -65 -82 -65
-5 0 -10 -4 -10 -8 0 -14 -73 -50 -117 -57 -30 -5 -43 -3 -43 5 0 20 32 45 55
42 13 -2 25 3 28 12 8 20 3 20 -59 1 -51 -15 -77 -7 -56 18 7 8 9 17 5 20 -3
4 -1 7 5 7 7 0 12 -4 12 -10 0 -5 7 -7 17 -3 14 5 13 8 -6 15 -27 10 -18 28
14 28 12 0 26 7 29 16 5 12 14 15 39 10 38 -7 46 -2 69 42 14 27 15 32 3 32
-19 0 -19 5 2 30 18 20 43 27 43 11 0 -9 52 0 105 17 17 6 37 10 45 10 12 0
11 -1 -1 -5z m-36 -345 c37 -148 39 -172 31 -310 -6 -105 -8 -118 -25 -118
-30 0 -31 -18 -2 -22 16 -2 -19 -5 -77 -6 -75 -1 -111 2 -124 11 -25 18 -25
52 0 317 3 30 6 70 6 88 1 26 8 37 37 54 20 12 52 39 72 60 20 21 41 38 45 38
5 0 22 -51 37 -112z m-433 -24 c16 -15 32 -36 36 -46 3 -12 12 -17 20 -14 8 3
14 1 14 -5 0 -24 33 -79 47 -79 12 0 14 -6 8 -27 -4 -16 -8 -44 -10 -63 -1
-19 -6 -62 -9 -96 -7 -59 -9 -61 -33 -56 -18 3 -24 1 -19 -7 4 -6 19 -11 34
-12 26 0 26 -1 5 -9 -24 -10 -108 1 -155 19 -25 9 -28 16 -30 63 -3 97 3 172
19 243 14 65 32 115 40 115 2 0 17 -12 33 -26z"/>
</g>
</svg>
