<?xml version="1.0" standalone="no"?>
<!DOCTYPE svg PUBLIC "-//W3C//DTD SVG 20010904//EN"
 "http://www.w3.org/TR/2001/REC-SVG-20010904/DTD/svg10.dtd">
<svg version="1.0" xmlns="http://www.w3.org/2000/svg"
 width="320.000000pt" height="320.000000pt" viewBox="0 0 320.000000 320.000000"
 preserveAspectRatio="xMidYMid meet">
<metadata>
Created by potrace 1.14, written by Peter Selinger 2001-2017
</metadata>
<g transform="translate(0.000000,320.000000) scale(0.100000,-0.100000)"
fill="#000000" stroke="none">
<path d="M0 2764 c0 -250 4 -433 9 -430 5 3 11 -3 14 -14 4 -17 8 -18 31 -7
14 7 29 20 32 30 6 18 24 24 24 7 0 -5 -5 -10 -11 -10 -6 0 -9 -6 -6 -12 2 -7
11 -12 21 -10 12 2 16 -5 16 -30 0 -18 -4 -39 -8 -46 -11 -17 -42 -4 -35 14 3
9 -1 14 -11 14 -9 0 -19 -7 -22 -15 -7 -18 -28 -20 -21 -2 5 15 -10 47 -23 47
-6 0 -10 -445 -10 -1150 l0 -1150 153 0 154 0 7 61 c5 54 43 199 65 254 5 11
17 40 27 65 61 150 122 219 308 347 53 36 321 305 355 356 18 26 44 79 57 117
l25 70 -20 92 c-11 51 -24 113 -29 138 -7 43 -9 45 -47 51 -81 11 -116 47
-155 160 -31 89 -37 156 -19 208 14 40 38 53 78 41 31 -9 31 -9 31 31 0 21 -3
39 -8 39 -9 0 -9 116 0 125 4 4 -3 16 -15 26 -12 10 -17 18 -11 19 13 0 24 50
27 117 1 23 4 37 8 31 12 -19 20 9 9 36 -7 21 -6 26 5 26 8 0 17 11 21 25 3
14 11 25 18 25 6 0 26 22 43 48 30 42 116 136 158 170 24 20 73 32 132 32 42
0 53 -3 53 -16 0 -12 6 -15 25 -10 14 4 35 1 47 -5 18 -10 20 -9 14 7 -6 18
-6 18 8 0 8 -10 22 -16 30 -13 8 3 20 -1 26 -9 7 -8 19 -14 26 -14 8 0 14 -4
14 -8 0 -4 14 -16 30 -25 17 -10 30 -25 30 -33 0 -8 5 -14 10 -14 6 0 10 -9
10 -20 0 -11 4 -28 9 -38 27 -53 33 -73 28 -91 -3 -12 -1 -21 4 -21 5 0 9 -11
9 -24 0 -13 6 -29 14 -35 8 -7 17 -26 20 -44 3 -18 13 -44 20 -59 23 -43 -5
-34 -38 12 l-18 25 6 -32 c3 -18 1 -33 -4 -33 -14 0 -32 39 -34 73 -1 17 -8
33 -15 35 -11 4 -12 -8 -7 -61 7 -60 6 -66 -13 -72 -31 -10 -41 2 -41 48 0 23
-5 49 -11 57 -8 11 -9 4 -6 -28 6 -46 -10 -72 -43 -72 -10 0 -22 -4 -25 -10
-10 -17 -25 -11 -25 10 0 16 -4 18 -24 10 -13 -4 -48 -8 -77 -8 -66 1 -190
-24 -145 -30 17 -2 30 -11 33 -22 3 -11 14 -22 24 -25 26 -8 25 -45 -1 -52
-19 -5 -19 -6 -4 -18 10 -7 15 -19 11 -27 -6 -18 -109 -32 -162 -22 -34 6 -35
6 -35 -28 0 -53 39 -120 85 -145 35 -19 58 -22 170 -24 91 -2 136 2 150 10 11
7 43 55 70 107 58 108 81 128 117 95 16 -16 18 -20 6 -16 -14 6 -18 2 -18 -20
0 -34 27 -132 45 -167 20 -35 19 -57 -5 -93 -23 -34 -26 -68 -7 -87 23 -24 48
-68 43 -77 -3 -4 -23 -13 -45 -21 -22 -7 -38 -17 -35 -21 6 -10 -7 -12 -50 -9
-18 1 -26 -2 -22 -9 4 -6 17 -11 30 -11 12 0 34 -12 47 -27 26 -30 36 -85 14
-77 -20 8 -27 -13 -10 -29 8 -9 15 -20 15 -26 0 -6 9 -15 21 -21 34 -19 69
-53 69 -67 0 -8 -4 -12 -9 -8 -5 3 -13 0 -16 -6 -5 -7 1 -9 15 -7 28 4 36 -28
14 -57 l-15 -20 -15 20 c-9 12 -24 19 -35 17 -17 -3 -20 0 -14 17 5 16 2 21
-10 21 -13 0 -16 -6 -11 -24 13 -52 -43 -105 -112 -107 -15 0 -36 -4 -47 -9
-16 -7 -10 -9 25 -11 25 -1 65 -1 90 0 56 3 69 -10 98 -94 23 -67 18 -77 -33
-73 -40 3 -55 -8 -55 -38 0 -33 -13 -31 -91 16 -37 22 -72 40 -77 40 -13 0
-33 -50 -28 -69 3 -9 -5 -29 -18 -44 -23 -28 -24 -28 -80 -18 -39 7 -78 25
-124 55 -37 25 -79 48 -94 51 -16 4 -28 10 -28 14 0 4 -38 5 -83 3 -81 -4 -85
-3 -105 22 -13 17 -22 22 -24 14 -8 -23 18 -69 50 -88 49 -30 92 -77 58 -64
-34 13 -32 -45 4 -84 23 -24 10 -31 -14 -7 -8 8 -18 15 -22 15 -5 0 10 -18 31
-40 21 -22 35 -40 30 -40 -17 0 -81 25 -133 52 -29 16 -55 28 -59 28 -7 0 26
-30 60 -54 21 -15 21 -15 -15 -12 -42 4 -52 -2 -38 -19 5 -6 7 -21 3 -34 -5
-18 -10 -21 -34 -16 -51 11 -38 -6 56 -75 33 -24 65 -48 70 -52 56 -46 68 -58
59 -58 -6 0 -29 14 -50 31 -61 48 -173 119 -189 119 -13 0 -17 -6 -14 -26 0
-4 -4 -10 -9 -13 -10 -6 -52 -94 -52 -109 0 -5 -13 -25 -28 -45 -29 -36 -32
-53 -18 -94 10 -32 28 -29 66 13 33 37 84 64 120 64 24 0 25 -8 4 -31 -18 -20
-21 -40 -28 -159 -3 -47 -8 -97 -12 -112 l-6 -28 944 0 943 1 -32 28 c-18 15
-33 32 -33 37 0 14 79 88 86 81 4 -4 2 -13 -5 -20 -13 -16 -5 -47 13 -47 13
-1 56 -35 56 -46 0 -4 8 -13 18 -20 12 -10 62 -13 190 -14 l172 0 0 176 c0
164 -1 176 -17 169 -10 -3 -31 -9 -47 -12 -22 -5 -28 -3 -24 8 2 8 19 15 38
17 l33 3 -28 15 c-31 16 -37 13 -58 -28 -9 -19 -17 -24 -27 -18 -12 7 -12 14
3 44 9 20 14 43 10 51 -4 13 0 15 23 9 27 -7 38 -16 48 -39 5 -14 32 15 41 42
6 22 4 23 -37 17 l-43 -6 -14 47 c-18 63 -8 79 52 83 l47 3 -1 275 c0 265 -1
274 -19 264 -24 -13 -60 -13 -60 0 0 5 -11 12 -25 16 -21 5 -25 12 -25 40 0
19 5 34 10 34 6 0 10 -8 10 -17 0 -15 2 -14 14 2 18 26 10 38 -20 31 -30 -8
-30 -3 -1 28 21 23 26 24 58 13 19 -7 40 -16 47 -20 9 -6 12 10 12 72 0 44 -4
91 -10 105 -6 16 -6 27 0 31 6 4 10 152 10 381 l0 374 -40 0 c-23 0 -55 -7
-71 -16 -37 -18 -39 -17 -41 27 -2 54 29 98 48 68 3 -6 20 -17 37 -24 26 -11
32 -10 48 6 26 26 28 173 3 183 -20 8 -34 -1 -34 -20 0 -9 -10 -14 -28 -14
-15 0 -33 -5 -40 -12 -9 -9 -12 -9 -12 0 0 6 8 17 19 23 11 8 16 19 13 32 -4
17 0 19 47 16 l51 -4 0 182 c0 100 -3 188 -6 197 -8 20 -22 21 -26 1 -2 -9 -8
-11 -16 -6 -19 12 -3 41 21 38 13 -1 23 5 25 16 4 20 -19 23 -49 7 -14 -8 -25
-7 -41 5 -13 8 -38 15 -58 15 -19 0 -47 6 -61 14 -29 15 -143 10 -133 -6 7
-11 -44 -57 -62 -58 -7 0 -14 -7 -18 -15 -4 -13 -9 -13 -25 -3 -29 18 -33 58
-7 79 20 17 20 18 2 25 -12 5 -21 3 -24 -4 -2 -7 -19 -12 -38 -12 -20 0 -33
-5 -32 -11 2 -6 -3 -14 -9 -16 -7 -3 -13 0 -13 6 0 6 -7 11 -15 11 -8 0 -31
12 -52 26 -33 23 -45 25 -90 20 -29 -3 -53 -2 -53 3 0 5 -9 11 -21 14 -29 8
-15 25 31 37 30 8 40 16 40 31 0 11 7 22 15 25 26 10 16 21 -30 34 -45 13 -57
26 -31 36 8 3 17 12 20 20 5 12 -164 14 -1219 14 l-1225 0 0 -436z m2449 -376
c23 -59 106 -86 336 -108 100 -9 149 -24 142 -44 -4 -12 -60 -15 -68 -3 -6 8
-28 9 -146 4 -29 -1 -53 1 -53 5 0 12 -28 9 -51 -4 -17 -11 -22 -10 -35 7 -13
17 -13 20 3 27 12 4 6 7 -19 7 -25 1 -41 -5 -50 -17 -11 -16 -26 -18 -93 -16
-44 1 -82 3 -85 4 -8 4 -31 7 -77 9 -24 0 -43 6 -43 12 0 8 17 10 53 7 28 -3
46 -3 40 -1 -7 3 -13 14 -13 25 0 17 3 18 15 8 8 -7 25 -10 37 -7 13 4 29 0
39 -9 9 -8 41 -18 70 -20 45 -4 51 -3 40 9 -6 8 -27 18 -45 21 -24 5 -33 12
-32 24 1 19 -39 22 -121 11 -29 -4 -44 -2 -47 7 -7 19 0 21 60 17 33 -3 61 0
69 7 8 7 18 9 23 6 6 -3 12 3 15 14 7 27 25 25 36 -2z m-1736 -36 c8 -7 17 -9
20 -5 4 3 7 -1 7 -10 0 -10 -5 -14 -15 -11 -8 4 -15 10 -15 14 0 4 -33 6 -72
3 -40 -3 -146 -5 -234 -4 -153 1 -162 0 -167 -19 -5 -20 -27 -28 -27 -10 0 6
-11 10 -25 10 -33 0 -35 37 -2 42 12 2 133 3 269 2 171 0 251 -4 261 -12z
m1924 -574 c10 -11 17 -22 16 -24 -7 -10 -2 -22 16 -43 12 -13 22 -18 26 -11
3 5 10 10 16 10 18 0 9 -23 -21 -52 -16 -15 -30 -35 -30 -43 0 -8 -4 -15 -10
-15 -5 0 -10 7 -10 15 0 17 -21 20 -35 6 -26 -24 -51 -21 -68 8 -21 36 -22 65
-2 85 8 8 15 25 15 38 0 13 5 29 11 35 17 17 57 12 76 -9z m313 -513 c10 -12
10 -15 -4 -15 -9 0 -16 -2 -16 -4 0 -2 -3 -11 -6 -20 -8 -21 19 -21 40 0 15
14 17 14 22 0 3 -9 3 -24 -1 -33 -5 -12 -9 -14 -12 -5 -7 17 -33 15 -33 -3 0
-8 -5 -15 -10 -15 -6 0 -13 7 -16 15 -8 20 -21 19 -27 -2 -4 -15 -6 -15 -12 5
-9 28 -21 28 -28 0 -5 -17 -9 -19 -20 -9 -12 9 -16 7 -21 -13 -4 -17 -11 -23
-20 -20 -8 3 -12 12 -9 20 8 20 -23 18 -39 -3 -7 -10 -22 -19 -33 -21 -14 -2
-16 0 -7 6 7 5 16 22 20 37 9 33 54 62 104 68 18 3 40 7 48 10 56 20 65 21 80
2z m81 -946 c11 -5 17 -14 13 -20 -4 -6 -11 -6 -20 2 -11 9 -14 7 -14 -13 0
-13 7 -33 15 -44 22 -29 18 -36 -10 -18 -14 9 -25 12 -25 6 0 -6 9 -16 20 -22
24 -13 26 -30 4 -30 -10 0 -14 -5 -10 -16 3 -8 2 -12 -4 -9 -6 3 -10 -1 -10
-10 0 -9 5 -13 10 -10 6 3 15 -6 20 -21 6 -15 9 -27 8 -28 -2 -1 -25 -9 -52
-18 -43 -14 -53 -15 -76 -3 -43 22 -52 38 -35 62 15 22 55 21 85 -1 13 -10 13
-9 1 7 -15 19 -15 19 12 34 16 9 17 11 3 22 -14 11 -16 11 -16 -5 -1 -18 -1
-18 -15 0 -12 16 -12 21 -2 28 9 6 9 12 -1 29 -17 27 -4 41 35 42 15 0 22 2
15 4 -10 4 -9 10 5 23 22 23 20 22 44 9z"/>
</g>
</svg>
