<?xml version="1.0" standalone="no"?>
<!DOCTYPE svg PUBLIC "-//W3C//DTD SVG 20010904//EN"
 "http://www.w3.org/TR/2001/REC-SVG-20010904/DTD/svg10.dtd">
<svg version="1.0" xmlns="http://www.w3.org/2000/svg"
 width="320.000000pt" height="320.000000pt" viewBox="0 0 320.000000 320.000000"
 preserveAspectRatio="xMidYMid meet">
<metadata>
Created by potrace 1.14, written by Peter Selinger 2001-2017
</metadata>
<g transform="translate(0.000000,320.000000) scale(0.100000,-0.100000)"
fill="#000000" stroke="none">
<path d="M805 2890 c-3 -5 -12 -7 -19 -4 -7 3 -36 -20 -66 -53 -29 -32 -57
-57 -62 -55 -4 1 -8 -5 -8 -14 0 -17 -52 -98 -82 -127 -10 -10 -18 -25 -18
-33 0 -8 -11 -36 -24 -62 -13 -26 -33 -93 -43 -150 -18 -92 -18 -103 -4 -100
11 2 16 15 17 39 1 40 33 80 61 78 11 0 13 -3 6 -6 -7 -2 -13 -13 -13 -24 0
-11 -7 -36 -16 -57 -15 -36 -26 -119 -13 -104 8 9 26 60 33 94 4 16 12 27 18
25 7 -1 14 6 16 16 2 11 -3 17 -13 17 -9 0 -13 5 -10 10 3 6 15 10 27 10 16 0
19 5 14 23 -3 12 -6 27 -6 32 0 6 -4 3 -10 -5 -12 -19 -25 -6 -15 17 5 10 7
21 7 26 -1 4 5 7 13 7 9 0 15 9 15 25 0 15 6 25 14 25 7 0 19 7 26 15 7 9 15
13 19 10 3 -4 10 9 17 27 6 20 26 44 51 60 35 24 53 28 154 34 63 4 123 6 134
4 11 -1 32 -3 47 -3 15 0 29 -6 32 -13 3 -8 15 -14 26 -14 12 0 34 -13 50 -29
26 -25 30 -27 44 -13 14 14 16 13 26 -12 5 -15 8 -32 4 -37 -3 -5 2 -9 10 -9
9 0 16 -5 16 -11 0 -8 14 -10 43 -6 28 4 35 3 22 -3 -18 -7 -16 -9 13 -16 22
-4 37 -15 43 -30 4 -13 13 -24 18 -24 17 0 60 -49 67 -75 17 -66 30 -2 24 118
-2 38 -32 94 -70 129 -10 9 -21 23 -24 30 -4 10 -8 9 -18 -4 -10 -14 -14 -14
-33 -2 -11 7 -51 16 -89 19 -37 2 -75 9 -84 15 -10 5 -12 10 -4 10 6 0 12 9
12 21 0 11 -4 18 -9 14 -5 -3 -13 -1 -16 5 -4 6 -15 8 -26 5 -11 -4 -19 -2
-19 5 0 8 11 11 30 8 20 -3 30 0 30 9 0 7 3 13 6 13 13 0 54 -55 54 -72 0 -13
8 -18 29 -18 16 0 36 3 45 6 13 5 12 9 -7 24 -12 10 -18 22 -14 27 5 4 13 0
18 -10 6 -9 15 -17 21 -17 20 0 -34 49 -77 70 -23 11 -51 20 -64 20 -12 0 -19
4 -16 10 3 6 0 10 -9 10 -8 0 -16 4 -18 8 -1 4 -40 18 -84 30 -86 23 -257 31
-269 12z"/>
<path d="M730 2350 c-13 -9 -12 -12 4 -25 18 -14 18 -15 2 -15 -9 0 -14 -5
-11 -10 3 -6 -1 -13 -9 -16 -10 -4 -16 -18 -16 -39 0 -26 5 -35 22 -41 27 -8
48 -33 42 -49 -8 -19 32 -46 73 -52 44 -5 113 20 113 42 0 8 6 15 14 15 9 0
16 12 18 32 3 28 8 34 33 38 39 7 45 40 14 69 -45 42 -259 78 -299 51z"/>
<path d="M1142 2228 c-19 -23 -19 -167 0 -203 25 -48 52 -67 89 -63 26 2 37
10 47 31 11 24 18 27 41 22 23 -5 28 -2 39 28 13 37 16 87 4 102 -11 15 -70
55 -81 55 -5 0 -17 7 -26 16 -22 23 -97 30 -113 12z"/>
<path d="M2368 1986 c-46 -29 -135 -86 -198 -128 -63 -41 -158 -99 -210 -129
-52 -29 -97 -57 -98 -61 -2 -5 -8 -5 -14 -2 -7 5 -9 -3 -5 -22 4 -25 3 -26 -8
-11 -7 9 -15 17 -17 17 -12 0 -2 -36 12 -48 13 -12 13 -13 -1 -9 -13 4 -16 0
-12 -16 3 -16 2 -18 -5 -9 -7 10 -9 6 -10 -15 -4 -104 -23 -233 -35 -233 -5 0
-7 -9 -4 -20 3 -11 1 -18 -3 -15 -12 7 -25 -16 -14 -24 5 -3 10 -11 11 -18 2
-7 -13 -1 -33 12 -19 13 -42 21 -50 18 -18 -7 -76 16 -68 28 3 5 1 9 -5 9 -17
0 -23 -40 -9 -58 12 -16 11 -16 -12 0 -14 9 -24 23 -24 31 1 12 -4 13 -28 5
-16 -6 -32 -8 -35 -4 -4 3 1 6 10 6 10 0 17 4 17 9 0 5 8 12 18 15 9 3 -1 3
-23 0 -22 -3 -43 -10 -46 -16 -4 -6 -12 -8 -18 -4 -14 9 -102 24 -211 36 -71
7 -228 47 -195 49 6 1 18 13 27 29 23 38 65 82 72 75 3 -4 6 -1 6 5 0 6 11 22
25 36 30 30 31 36 5 29 -11 -3 -20 0 -20 6 0 5 -7 8 -15 5 -15 -6 -20 14 -16
63 2 29 -10 35 -41 19 -24 -13 -30 -12 -62 10 -19 13 -48 24 -63 24 -15 0 -41
9 -58 20 -22 15 -47 20 -96 20 -53 0 -68 4 -73 16 -4 9 -1 23 5 30 9 11 7 14
-12 14 -27 -1 -62 -23 -52 -34 4 -4 0 -4 -10 0 -14 5 -17 0 -17 -31 l0 -37 40
7 c38 6 40 5 72 -40 18 -25 36 -59 39 -74 5 -24 3 -27 -16 -23 -13 2 -25 -1
-29 -6 -10 -16 34 -62 59 -62 13 0 27 -5 30 -11 4 -6 37 -9 82 -8 54 2 78 -2
89 -13 13 -12 12 -17 -8 -36 -20 -18 -38 -22 -108 -24 -85 -3 -94 -1 -170 43
-14 8 -27 17 -30 20 -3 4 -16 6 -30 5 -15 -1 -25 4 -25 14 0 8 -17 21 -38 29
-39 15 -54 11 -41 -10 11 -18 12 -59 1 -66 -4 -3 -2 -12 7 -21 8 -10 16 -24
18 -32 2 -8 9 -21 16 -28 6 -7 12 -24 12 -37 0 -24 17 -35 51 -35 12 0 17 -5
14 -11 -8 -12 35 -79 50 -79 6 0 3 -5 -5 -10 -12 -8 -11 -10 8 -10 12 0 22 -6
22 -14 0 -26 107 -36 116 -11 4 8 11 15 17 15 7 0 7 -4 -1 -12 -18 -18 -15
-27 7 -21 10 2 23 14 28 26 31 67 43 99 43 112 0 8 5 15 10 15 6 0 10 6 10 13
0 6 13 27 29 45 33 37 41 29 41 -41 0 -92 -71 -279 -130 -342 -27 -30 -66
-118 -91 -205 -7 -25 -16 -49 -20 -54 -9 -11 -65 29 -128 92 -24 24 -67 57
-95 73 -29 15 -74 49 -101 74 -28 25 -93 72 -145 105 -115 72 -136 90 -188
158 -48 62 -58 88 -42 107 10 13 8 15 -13 15 -14 0 -29 -5 -32 -11 -4 -5 -18
-15 -32 -20 -17 -6 -23 -14 -19 -24 3 -8 9 -21 12 -29 3 -8 -3 -16 -16 -19
-20 -5 -20 -11 -18 -139 l3 -133 30 1 c71 3 193 16 233 25 41 9 47 8 92 -25
26 -19 67 -44 90 -56 23 -12 40 -24 37 -26 -3 -3 -17 2 -31 12 -15 9 -29 14
-32 11 -6 -6 59 -47 75 -47 7 0 10 -4 7 -9 -4 -5 2 -7 13 -4 14 3 30 -11 64
-54 25 -32 52 -65 61 -72 23 -19 20 -29 -9 -23 -15 2 -25 0 -25 -7 0 -6 7 -11
15 -11 8 0 15 -4 15 -8 0 -5 14 -8 30 -7 17 1 35 -4 40 -10 14 -17 -49 -34
-157 -41 -89 -7 -90 -7 -189 36 -74 32 -124 46 -199 56 -55 8 -107 14 -115 14
-12 0 -12 2 -1 9 9 6 4 10 -17 13 l-30 4 -1 -211 -2 -212 46 -13 c34 -10 105
-11 288 -6 133 3 257 9 276 12 24 5 32 3 27 -5 -4 -6 -1 -11 9 -11 9 0 14 4
11 8 -6 10 55 27 144 42 36 6 86 22 111 35 25 13 67 26 95 30 77 12 245 70
299 104 36 23 61 31 95 31 80 0 330 65 330 87 0 7 5 13 11 13 8 0 10 -15 4
-52 -4 -29 -10 -132 -14 -228 l-6 -175 -35 -6 c-120 -23 -182 -40 -232 -62
-31 -14 -84 -33 -118 -42 -33 -9 -75 -25 -93 -35 l-32 -20 343 0 c289 0 342 2
342 14 0 8 19 31 43 52 23 20 33 34 22 29 -11 -4 -29 -9 -40 -12 -16 -4 -17
-3 -5 6 12 8 12 11 1 11 -11 0 -11 3 -1 15 10 12 10 15 -1 15 -8 1 -1 12 16
25 38 31 26 44 -15 15 -38 -27 -53 -17 -19 13 14 12 18 18 10 12 -10 -7 -16
-6 -19 3 -2 8 -8 10 -15 4 -21 -16 -56 -20 -67 -7 -8 10 -5 14 14 19 27 7 41
32 24 42 -6 4 -8 3 -5 -2 3 -6 -3 -15 -14 -22 -29 -19 -23 4 9 28 104 80 286
167 327 155 11 -3 33 -24 50 -48 57 -81 83 -125 78 -131 -3 -3 32 -57 77 -120
l82 -116 352 0 352 0 22 53 c21 51 22 63 22 477 0 412 -1 427 -21 465 -11 22
-27 45 -34 50 -14 11 -75 137 -75 155 0 6 -4 9 -9 6 -5 -3 -12 17 -15 46 -4
28 -10 63 -13 78 -6 30 1 39 75 100 23 19 42 38 42 43 0 4 -4 5 -10 2 -15 -9
-12 2 6 31 9 13 14 27 10 31 -3 3 -6 1 -6 -6 0 -7 -4 -10 -9 -6 -5 3 -13 0
-17 -6 -5 -8 -3 -9 7 -4 8 5 10 4 6 0 -4 -5 -14 -10 -23 -11 -10 -2 -13 3 -9
17 4 11 2 19 -5 19 -7 0 -9 9 -6 23 3 12 3 16 0 10 -9 -19 -37 -16 -30 3 3 9
6 18 6 20 0 3 6 2 13 -2 6 -4 4 2 -6 13 -9 11 -14 23 -10 26 3 4 0 7 -9 7 -8
0 -20 -11 -26 -25 -6 -14 -16 -25 -22 -25 -7 0 -8 6 0 19 5 11 10 28 10 38 -1
11 -7 4 -16 -16 -8 -19 -17 -31 -20 -28 -3 3 -1 14 5 25 6 12 11 27 11 34 0 7
-8 -2 -17 -20 -8 -18 -18 -31 -20 -28 -3 2 0 13 6 24 17 31 13 56 -9 70 -17
10 -20 10 -20 -3 0 -8 7 -15 15 -15 8 0 15 -8 15 -17 0 -20 -39 -75 -40 -56 0
6 4 14 9 17 5 3 11 16 14 28 6 20 3 19 -19 -7 -17 -21 -22 -23 -15 -8 16 31
13 79 -4 93 -13 11 -15 7 -15 -23 0 -20 -4 -38 -9 -42 -6 -3 -9 13 -8 37 1 30
-2 42 -10 40 -7 -1 -13 3 -13 9 0 5 -5 7 -10 4 -6 -3 -13 1 -16 9 -3 9 -10 14
-14 11 -5 -3 -18 10 -29 28 -52 84 -164 165 -288 208 l-52 18 -83 -53z m218
-645 c19 15 18 -1 -1 -28 -9 -12 -15 -26 -14 -30 4 -18 -21 -61 -50 -86 -65
-54 -181 -44 -181 17 0 32 13 46 56 61 23 8 31 14 19 15 -18 0 -17 2 5 13 14
8 35 20 47 27 19 13 24 11 42 -11 19 -23 20 -23 27 -4 4 11 12 26 18 34 9 12
12 11 14 -3 3 -14 7 -15 18 -5z m-1153 -191 c-3 -24 0 -30 14 -31 17 -1 17 -1
0 -6 -31 -8 -15 -29 38 -49 16 -7 14 -9 -15 -12 -19 -2 -39 -8 -45 -14 -7 -7
-3 -9 14 -5 13 3 35 1 50 -5 14 -6 36 -10 48 -9 17 2 21 -2 17 -13 -7 -17 11
-22 21 -6 9 15 35 12 35 -4 0 -8 -5 -16 -10 -18 -6 -2 -2 -13 9 -25 11 -11 17
-24 14 -27 -4 -3 1 -6 11 -6 37 0 3 -19 -47 -25 -28 -4 -77 -13 -107 -21 -30
-8 -73 -13 -96 -12 -30 1 -50 -6 -75 -24 -39 -30 -83 -45 -164 -58 -43 -7 -64
-16 -79 -34 -24 -28 -126 -71 -126 -53 0 9 53 187 76 257 4 13 6 13 15 0 9
-12 10 -12 5 2 -3 11 11 48 34 90 l39 72 58 12 c32 7 69 13 84 13 26 1 79 22
79 32 0 3 24 6 54 7 l54 1 -5 -29z m435 -375 c10 17 11 18 12 3 0 -11 8 -18
19 -18 10 0 22 -7 25 -16 3 -9 2 -12 -5 -9 -16 10 -5 -45 12 -56 12 -9 12 -11
-1 -16 -8 -4 -48 -24 -89 -45 -56 -30 -72 -35 -66 -21 4 10 14 43 21 73 7 30
21 72 31 92 16 34 19 35 24 15 5 -22 5 -22 17 -2z"/>
<path d="M818 1937 c-26 -12 -48 -27 -48 -33 0 -7 -7 -14 -15 -18 -8 -3 -15
-14 -15 -25 0 -17 3 -18 35 -7 19 7 38 15 41 19 13 13 35 7 41 -10 3 -10 13
-26 21 -35 8 -10 12 -18 7 -18 -4 0 -1 -7 6 -16 7 -9 12 -29 11 -45 -2 -22 3
-31 19 -37 26 -10 99 8 99 23 0 29 82 77 95 55 10 -16 25 -2 25 23 -1 12 -7
36 -16 52 l-14 30 4 -30 c3 -17 1 -37 -4 -45 -7 -11 -11 -8 -21 13 -12 26 -28
32 -74 27 -11 -1 -21 -6 -23 -10 -2 -5 -19 0 -37 11 -19 11 -47 19 -62 17 -37
-4 -43 25 -12 58 21 22 21 24 3 23 -10 0 -40 -11 -66 -22z"/>
</g>
</svg>
