<?xml version="1.0" standalone="no"?>
<!DOCTYPE svg PUBLIC "-//W3C//DTD SVG 20010904//EN"
 "http://www.w3.org/TR/2001/REC-SVG-20010904/DTD/svg10.dtd">
<svg version="1.0" xmlns="http://www.w3.org/2000/svg"
 width="320.000000pt" height="320.000000pt" viewBox="0 0 320.000000 320.000000"
 preserveAspectRatio="xMidYMid meet">
<metadata>
Created by potrace 1.14, written by Peter Selinger 2001-2017
</metadata>
<g transform="translate(0.000000,320.000000) scale(0.100000,-0.100000)"
fill="#000000" stroke="none">
<path d="M1 2975 c2 -210 3 -225 20 -230 11 -4 19 -11 19 -16 0 -14 -28 -11
-33 4 -3 6 -5 -165 -4 -382 2 -305 5 -395 14 -399 7 -2 13 -11 13 -19 0 -13 3
-13 15 -3 8 7 15 29 15 49 0 26 9 50 30 77 16 21 30 45 30 52 0 15 16 16 26 0
5 -7 12 -5 22 8 13 18 14 17 8 -10 -19 -81 -19 -85 8 -121 15 -19 22 -35 17
-35 -6 0 -11 -4 -11 -10 0 -5 10 -10 23 -10 12 0 29 -5 37 -11 12 -8 10 -10
-9 -5 -14 3 -31 0 -38 -6 -9 -7 -13 -7 -13 1 0 6 -7 11 -15 11 -11 0 -12 -5
-5 -25 5 -14 6 -25 1 -25 -5 0 -11 9 -14 20 -3 11 -10 20 -16 20 -6 0 -8 -7
-5 -15 4 -8 2 -15 -4 -15 -6 0 -13 6 -15 13 -3 6 -6 0 -6 -14 -1 -19 10 -37
36 -60 21 -18 37 -35 35 -38 -2 -3 1 -7 6 -9 6 -2 12 4 14 12 3 13 7 13 35 1
30 -13 33 -18 34 -57 1 -24 1 -49 0 -55 -1 -7 3 -13 8 -13 5 0 12 19 14 43 3
36 4 34 5 -15 1 -32 6 -58 11 -58 22 0 17 -25 -5 -26 -13 -1 -22 1 -20 5 3 4
0 13 -5 21 -8 12 -10 9 -8 -10 2 -39 0 -41 -24 -30 -20 10 -20 10 -4 -3 21
-17 22 -33 2 -41 -8 -3 -15 -14 -15 -25 0 -11 -6 -21 -12 -23 -15 -5 12 -36
50 -55 27 -14 46 -8 22 7 -11 7 -11 11 -1 24 7 8 10 19 7 25 -3 5 0 11 6 14 7
2 10 8 6 12 -5 5 -17 0 -28 -10 -11 -10 -23 -15 -28 -11 -4 4 4 16 17 27 15
13 22 26 18 39 -3 13 0 20 10 20 8 0 17 -9 20 -20 6 -22 18 -26 28 -10 4 6 11
8 16 5 5 -4 22 3 37 14 15 11 34 19 42 19 37 -2 61 3 55 12 -3 6 -1 10 5 10 6
0 10 -8 9 -17 -1 -10 2 -26 6 -37 17 -39 -24 -94 -84 -111 -17 -5 -21 -4 -16
5 5 8 3 11 -6 8 -8 -3 -13 -15 -11 -28 3 -21 2 -22 -12 -11 -8 7 -21 11 -28 8
-7 -3 2 -11 22 -20 33 -15 35 -14 38 4 4 25 51 26 82 1 26 -21 37 -87 21 -135
-14 -43 -34 -52 -66 -31 -22 14 -26 14 -54 -7 -40 -30 -44 -45 -21 -77 11 -15
24 -49 30 -77 23 -117 49 -229 49 -216 1 8 3 12 6 9 3 -3 1 -17 -4 -31 -9 -22
-8 -25 6 -20 12 5 15 2 11 -9 -4 -9 -3 -19 2 -24 14 -15 15 -119 1 -116 -9 2
-9 -3 -1 -17 5 -11 10 -46 10 -78 0 -33 5 -64 12 -71 9 -9 8 -12 -4 -12 -9 0
-19 6 -21 13 -3 7 -6 4 -6 -6 -1 -15 15 -45 45 -86 2 -2 16 6 31 17 32 22 134
64 141 57 2 -2 -13 -20 -34 -41 -22 -20 -33 -33 -26 -30 6 4 12 3 12 -2 0 -9
-63 -46 -97 -56 -15 -5 -22 -2 -25 8 -2 10 -8 13 -16 7 -11 -6 -10 -11 3 -25
15 -15 15 -16 -4 -16 -29 0 -36 -18 -8 -25 13 -4 27 -5 33 -4 17 4 64 -13 58
-22 -8 -14 -158 -11 -172 3 -22 22 -14 38 17 32 l28 -6 -4 68 c-2 38 -9 74
-15 81 -8 11 -7 12 8 6 17 -6 17 -5 5 10 -9 12 -12 31 -8 60 5 34 0 54 -24
102 -16 33 -27 52 -25 43 3 -10 1 -18 -4 -18 -5 0 -10 -8 -12 -17 -2 -10 -10
-18 -18 -19 -8 0 -37 -10 -63 -22 -26 -12 -58 -21 -70 -19 -12 1 -22 -4 -23
-10 -1 -7 -2 -17 -3 -23 -1 -9 -64 -7 -121 4 -14 2 -35 5 -47 5 -18 1 -23 8
-26 38 -2 21 -4 -109 -5 -289 l-2 -328 35 0 c32 0 35 2 29 24 -5 23 -4 23 52
21 52 -3 63 1 124 40 37 24 70 52 73 64 3 11 20 29 38 38 18 10 42 28 53 39
13 13 39 24 66 27 73 8 142 27 182 48 21 11 43 17 50 13 7 -5 9 -2 5 8 -3 9 5
41 17 72 31 77 41 83 16 11 -11 -32 -17 -62 -13 -66 11 -10 66 39 58 51 -3 6
1 10 10 10 9 0 13 5 10 10 -3 6 -1 10 5 10 7 0 9 -8 5 -20 -8 -25 -3 -25 55 4
26 13 62 27 80 31 33 7 100 69 100 91 0 7 -7 14 -15 18 -12 4 -14 0 -9 -19 5
-19 2 -25 -9 -25 -9 0 -20 7 -25 16 -6 11 -14 14 -23 8 -23 -15 -63 -10 -87
10 -24 21 -21 30 17 41 19 6 23 4 18 -9 -9 -22 29 -42 48 -26 8 6 15 21 17 33
2 12 12 23 23 26 17 3 18 2 5 -14 -14 -16 -12 -17 20 -11 22 5 30 4 22 -2 -11
-7 -11 -10 2 -15 23 -9 34 46 40 195 3 85 1 128 -6 128 -7 0 -7 5 -1 12 5 7
10 34 11 60 3 43 1 48 -23 54 -14 3 -25 12 -25 20 0 7 -7 32 -16 54 -13 31
-21 40 -41 40 -33 0 -66 -19 -59 -35 2 -7 2 -16 -2 -20 -3 -3 -14 18 -24 46
-10 29 -14 55 -9 58 11 7 31 80 28 105 -1 10 3 20 8 22 9 3 15 -27 18 -89 1
-10 7 -15 14 -13 7 3 17 -3 22 -12 15 -25 13 -8 -5 56 -29 98 -1 272 44 272 7
0 33 -19 59 -42 26 -24 43 -38 40 -31 -4 6 2 27 14 45 13 21 18 25 14 11 -13
-45 63 -51 84 -7 16 36 14 51 -10 57 -15 4 -20 11 -16 22 4 9 -2 24 -13 35
-11 11 -20 33 -20 49 0 20 -8 34 -26 46 -21 13 -24 19 -13 26 10 6 11 11 2 20
-13 13 -36 3 -27 -13 4 -6 1 -14 -6 -18 -7 -4 -14 -24 -15 -44 -3 -43 -15 -60
-58 -77 -42 -16 -42 -16 -29 -32 9 -11 4 -14 -31 -15 -23 0 -62 -7 -88 -15
l-45 -14 -12 39 c-7 22 -10 43 -7 49 4 5 -3 9 -14 9 -11 0 -23 -4 -26 -10 -11
-18 -26 -11 -16 8 11 21 10 92 -1 92 -4 0 -7 -5 -5 -11 4 -20 -23 -22 -29 -2
-3 10 -10 26 -16 37 -7 14 -6 21 4 27 7 5 14 4 16 -1 2 -5 19 -12 37 -16 27
-5 40 -1 69 23 20 15 36 32 36 36 0 14 27 37 43 37 20 0 41 26 27 35 -5 3 -10
13 -10 22 0 12 3 13 14 4 10 -8 16 -8 24 2 7 8 24 12 41 9 21 -3 32 2 45 19 9
13 16 17 16 10 0 -8 7 -11 20 -8 18 5 18 3 4 -18 -13 -20 -13 -27 -2 -44 16
-26 27 -27 34 -3 18 52 30 72 42 67 8 -3 12 2 10 12 -2 10 5 19 14 21 13 2 16
-1 12 -12 -4 -11 0 -16 14 -16 11 0 22 8 25 20 5 19 37 24 53 8 3 -4 17 5 30
19 13 14 24 21 24 14 0 -6 5 -11 11 -11 7 0 9 10 7 24 l-5 24 36 -23 c21 -13
35 -29 33 -39 -2 -11 5 -16 23 -16 33 0 32 10 -4 41 -17 15 -33 39 -37 55 -4
16 -11 35 -17 42 -7 9 -4 11 11 9 12 -2 25 -6 28 -10 14 -14 22 -7 29 23 4 17
11 30 17 30 6 0 8 -9 5 -20 -3 -11 -2 -20 3 -20 4 0 11 11 14 25 4 14 11 25
16 25 6 0 10 5 10 10 0 6 -6 10 -13 10 -16 0 -87 72 -87 88 0 7 -5 12 -11 12
-5 0 -7 5 -4 10 3 6 1 10 -5 10 -7 0 -9 13 -4 38 10 54 30 89 56 95 21 6 22 5
5 -8 -13 -9 -15 -15 -6 -20 10 -7 23 5 31 27 2 4 17 9 34 11 17 2 44 13 61 25
30 21 52 19 33 -3 -7 -8 -4 -17 8 -28 16 -15 21 -15 38 -3 14 11 16 17 7 27
-6 6 -9 18 -6 25 3 9 -2 14 -16 14 -12 0 -21 5 -21 10 0 6 6 10 14 10 7 0 16
9 19 20 3 11 13 23 24 26 10 3 26 9 35 14 11 6 18 5 21 -3 4 -9 6 -9 6 1 1 15
21 16 21 1 0 -6 7 -17 15 -25 8 -9 15 -12 15 -7 0 5 -5 14 -12 21 -9 9 -9 12
0 12 7 0 15 -8 18 -17 3 -10 12 -30 20 -45 8 -16 11 -28 6 -28 -5 0 -16 -17
-26 -37 -9 -21 -24 -51 -33 -68 -15 -28 -16 -28 -24 -8 -9 25 -14 29 -56 38
-29 6 -33 4 -39 -19 -3 -14 -9 -26 -13 -26 -3 0 -17 -16 -29 -35 l-24 -34 -26
24 c-14 13 -30 21 -36 17 -6 -3 -21 -5 -33 -3 -13 1 -23 -1 -23 -6 0 -16 18
-35 27 -30 5 3 26 -8 46 -24 27 -22 37 -38 37 -59 l0 -28 63 3 c34 2 68 4 75
5 38 2 62 -4 62 -16 0 -8 5 -14 10 -14 6 0 9 3 8 8 -4 11 9 12 34 3 14 -5 17
-10 10 -15 -24 -15 -12 -28 21 -22 17 3 39 1 47 -5 13 -9 12 -10 -2 -5 -26 8
-23 -17 5 -40 42 -36 67 -46 83 -33 11 9 15 7 21 -7 3 -11 15 -27 26 -36 20
-18 20 -18 -1 -18 -12 0 -22 4 -22 10 0 5 -10 15 -22 21 -21 11 -21 10 5 -24
15 -19 27 -39 27 -44 0 -5 9 -16 20 -26 19 -16 20 -16 20 4 0 23 24 21 26 -2
3 -31 5 -33 13 -21 5 9 15 -2 30 -37 15 -37 27 -51 41 -51 11 0 20 4 20 9 0 5
7 12 16 15 8 3 12 2 9 -4 -3 -5 0 -18 7 -29 10 -16 10 -23 0 -33 -6 -6 -12
-22 -12 -34 0 -12 -5 -24 -12 -26 -8 -3 -8 -21 2 -71 14 -74 7 -182 -16 -269
-18 -69 -18 -74 5 -54 30 28 54 17 63 -29 10 -48 4 -83 -7 -37 -4 17 -11 32
-14 32 -14 0 -51 -59 -41 -65 6 -3 10 -15 10 -27 0 -14 5 -18 15 -14 19 7 20
11 -11 -64 -16 -39 -28 -93 -31 -137 -3 -41 -10 -76 -16 -80 -14 -9 -28 19
-22 45 3 14 2 21 -3 18 -6 -3 -12 -20 -14 -38 -3 -18 -7 -40 -9 -48 -3 -10 5
-16 24 -18 15 -2 27 -9 27 -17 0 -9 -6 -12 -15 -9 -9 4 -15 1 -15 -7 0 -8 -20
-22 -45 -32 -25 -11 -45 -26 -45 -34 0 -8 -8 -27 -18 -41 -10 -15 -22 -35 -25
-45 -4 -10 -17 -17 -31 -17 -17 0 -29 -9 -39 -30 -8 -16 -11 -30 -7 -32 11 -4
-18 -65 -45 -99 -33 -40 -86 -73 -127 -76 -23 -3 -38 0 -38 7 0 6 -5 8 -12 3
-18 -10 -88 -11 -88 0 0 4 -6 5 -12 0 -14 -8 -67 -5 -83 5 -5 3 -17 7 -25 7
-20 2 -110 63 -110 74 0 5 -9 11 -21 14 -15 4 -19 11 -15 25 5 15 1 21 -18 26
-16 4 -25 15 -29 33 -6 34 3 93 14 93 5 0 9 5 9 11 0 6 -8 9 -19 6 -11 -2 -24
3 -32 14 -19 27 -32 24 -27 -6 3 -14 1 -25 -3 -25 -5 0 -9 9 -9 20 0 10 -9 24
-20 30 -11 6 -20 18 -20 28 0 14 -2 14 -9 3 -5 -8 -16 -11 -26 -7 -16 6 -17 1
-11 -51 4 -31 13 -64 21 -73 8 -9 15 -20 15 -24 0 -4 7 -14 15 -22 8 -9 15
-24 15 -35 0 -10 5 -19 10 -19 6 0 10 -5 10 -12 0 -6 36 -46 80 -89 44 -43 80
-80 80 -83 0 -9 51 -56 60 -56 6 0 10 -7 10 -15 0 -8 4 -15 9 -15 5 0 12 -10
16 -22 3 -13 9 -18 11 -11 7 16 42 -17 36 -34 -10 -29 47 5 105 63 34 35 77
70 96 77 18 8 50 31 71 51 22 20 40 35 42 33 2 -1 -6 -36 -17 -77 -21 -81 -24
-110 -10 -110 5 0 32 -16 61 -35 29 -19 64 -38 79 -41 49 -11 146 -45 168 -60
22 -14 23 -13 19 8 -3 13 -5 25 -6 28 -7 17 -4 37 8 52 8 9 11 21 8 27 -4 5
-2 12 3 15 12 8 21 -83 10 -111 -12 -33 -4 -45 44 -69 35 -17 42 -25 40 -47
l-2 -27 330 0 329 0 23 27 c12 15 45 52 74 83 46 48 55 54 71 43 17 -10 21 -8
31 13 6 13 18 24 26 24 9 0 13 5 10 10 -3 6 4 14 17 19 17 7 2 10 -57 10 -88
0 -120 -15 -127 -60 -2 -18 -10 -25 -30 -27 -29 -3 -39 15 -13 24 8 4 15 10
15 16 0 5 -22 -3 -49 -17 -27 -15 -55 -24 -61 -20 -9 6 -9 10 1 16 10 6 10 9
2 9 -7 0 -26 -15 -42 -32 -24 -25 -31 -29 -31 -15 0 9 5 17 12 17 6 0 9 3 5 6
-3 4 4 15 16 26 22 20 22 20 -8 0 -34 -22 -75 -37 -75 -27 0 3 5 15 11 27 15
27 7 31 -27 13 -37 -19 -54 -19 -28 0 17 13 13 14 -43 8 -35 -3 -74 -1 -92 5
-37 13 -120 81 -121 99 0 7 -13 19 -30 28 -43 22 -37 38 23 63 112 46 205 64
304 57 64 -4 93 -3 98 6 5 7 21 9 45 5 23 -4 54 0 80 9 27 9 79 15 141 15 l99
0 0 657 c0 635 -1 656 -18 640 -20 -19 -43 -24 -25 -6 8 8 8 22 1 47 -9 33 -8
38 16 59 25 21 34 43 19 43 -5 0 -16 7 -26 14 -14 11 -16 19 -7 40 5 14 16 26
25 26 11 0 15 10 15 35 0 40 0 41 -43 18 -18 -9 -36 -16 -40 -15 -4 1 -7 -3
-6 -10 2 -7 -5 -29 -13 -48 -14 -30 -16 -32 -17 -12 -2 51 54 112 104 112 13
0 15 61 15 560 l0 560 -499 0 -499 0 3 -46 3 -45 -47 5 c-25 2 -49 5 -53 5 -5
1 -8 8 -8 16 0 17 -16 20 -25 5 -3 -6 1 -13 10 -16 11 -5 13 -10 5 -19 -5 -6
-6 -16 -2 -20 4 -5 -4 -2 -18 7 -18 11 -25 25 -25 47 0 17 0 31 -1 31 0 0 -11
-9 -23 -19 -19 -17 -21 -22 -9 -40 7 -12 18 -21 24 -21 17 0 44 -34 44 -56 0
-16 -2 -17 -10 -4 -5 8 -10 11 -10 6 0 -5 -12 1 -27 15 -21 19 -25 20 -20 6 4
-10 7 -24 7 -31 0 -21 43 -34 91 -29 58 7 80 -16 83 -86 2 -27 8 -56 14 -63 7
-9 7 -29 2 -58 -10 -51 3 -76 24 -48 13 17 33 23 69 20 25 -3 23 -58 -3 -74
-11 -7 -20 -18 -20 -24 0 -7 -8 -10 -19 -7 -13 3 -18 11 -14 21 4 15 3 15 -10
0 -8 -10 -20 -18 -27 -18 -7 0 -10 -7 -6 -16 3 -9 6 -18 6 -20 0 -2 13 -4 28
-4 16 0 37 -9 49 -19 11 -11 31 -21 44 -23 18 -2 25 3 34 27 5 17 12 32 16 35
3 3 8 13 12 22 5 14 12 15 36 8 40 -11 51 -19 51 -33 0 -19 39 -49 53 -40 7 4
27 8 45 10 24 1 32 -2 32 -15 0 -10 -9 -23 -20 -30 -14 -8 -20 -23 -20 -47 0
-41 -8 -43 -43 -11 -22 21 -27 22 -40 9 -9 -9 -21 -12 -27 -8 -9 6 -6 13 10
25 19 14 20 18 6 23 -20 8 -39 -26 -38 -66 l1 -29 -25 23 c-13 12 -24 29 -24
36 0 11 -5 10 -24 -2 -26 -17 -64 -13 -102 12 -20 13 -22 12 -28 -12 -8 -31
-16 -31 -46 0 -13 14 -29 25 -36 25 -8 0 -11 6 -8 15 4 8 -1 17 -10 21 -18 7
-44 -16 -38 -34 2 -6 -1 -12 -6 -12 -6 0 -18 -7 -27 -16 -15 -15 -17 -15 -35
1 -16 15 -19 30 -18 89 0 39 -2 81 -6 92 -5 15 -3 23 8 27 10 4 13 1 9 -9 -3
-8 0 -21 7 -29 7 -8 9 -15 4 -15 -4 0 -3 -5 3 -11 8 -8 16 -8 30 0 10 6 12 11
6 11 -18 0 -16 27 3 34 24 9 24 9 24 -29 0 -19 5 -35 11 -35 6 0 8 -7 5 -16
-3 -8 -2 -13 2 -10 5 3 7 30 4 61 -4 44 -2 55 11 55 16 0 52 48 43 58 -3 3 -6
0 -6 -6 0 -7 -5 -12 -11 -12 -5 0 -7 5 -4 10 3 6 1 10 -4 10 -6 0 -11 7 -11
16 0 14 -1 14 -16 0 -19 -20 -25 -20 -18 -3 3 8 -2 20 -10 27 -9 7 -13 16 -10
21 3 5 -4 9 -16 9 -20 0 -22 -4 -18 -52 3 -51 3 -51 -27 -54 -27 -3 -28 -2 -7
6 16 7 22 18 22 40 0 16 -3 30 -7 30 -14 -1 -43 -27 -43 -38 0 -5 -14 -15 -30
-21 -25 -8 -32 -7 -36 4 -3 7 -12 16 -20 19 -10 4 -12 2 -8 -6 5 -8 2 -9 -9
-5 -19 7 -22 -15 -11 -72 8 -39 20 -40 27 -2 5 24 10 28 31 24 16 -3 26 -1 26
6 0 6 5 11 10 11 17 0 11 -24 -13 -50 -13 -14 -26 -33 -30 -43 -4 -11 -12 -15
-19 -11 -7 5 -9 1 -6 -14 4 -13 -1 -27 -12 -37 -16 -15 -18 -14 -23 6 -3 11
-1 32 6 46 7 16 7 27 1 31 -5 4 -11 23 -12 42 -1 19 -5 42 -8 52 -2 9 0 19 6
23 5 3 10 11 10 16 0 6 -5 7 -10 4 -15 -9 -12 41 5 82 20 47 19 51 -11 55
l-26 3 39 43 c32 36 44 43 69 40 l29 -3 -41 -22 c-23 -12 -44 -29 -47 -37 -5
-12 -2 -12 20 -1 14 8 29 19 33 25 4 6 21 12 38 12 l32 1 -5 61 c-3 34 -8 76
-10 93 l-6 33 -318 0 c-270 0 -321 -2 -331 -15 -17 -20 -61 -20 -54 0 5 13
-69 15 -635 15 l-642 0 2 -225z m3035 67 c6 -9 17 -13 25 -10 10 4 14 -2 13
-21 -2 -46 -16 -101 -24 -96 -4 3 -10 -4 -13 -15 -3 -11 -2 -20 3 -20 4 0 10
-11 12 -25 3 -13 1 -22 -3 -19 -5 3 -9 -1 -9 -8 0 -7 -12 -14 -26 -14 -32 -2
-38 -9 -29 -31 5 -10 7 -21 7 -25 -1 -5 3 -8 8 -8 6 0 10 -9 10 -19 0 -11 6
-21 13 -24 6 -2 9 -8 5 -12 -12 -13 -55 28 -92 87 -20 32 -36 62 -36 68 0 14
13 13 29 -2 10 -11 10 -8 0 15 -12 26 -24 34 -31 20 -1 -5 -17 -15 -34 -24
-29 -15 -30 -15 -42 10 -22 46 -15 71 23 86 27 12 40 12 59 4 22 -10 30 -8 60
17 19 16 33 35 30 42 -2 8 1 12 8 9 7 -2 12 -11 10 -19 -1 -9 7 -18 18 -21 26
-7 26 8 0 36 -17 18 -24 19 -39 10 -15 -10 -20 -9 -24 1 -13 34 45 40 69 8z
m-1946 -532 c15 -37 36 -53 28 -22 -8 30 -2 28 16 -5 12 -24 12 -32 0 -55 -16
-31 -49 -29 -39 3 4 11 2 19 -3 19 -14 0 -33 -26 -25 -34 4 -4 0 -4 -10 0 -12
4 -16 13 -12 28 4 12 3 16 -2 10 -4 -6 -16 -13 -26 -17 -9 -3 -25 -22 -34 -41
l-16 -35 -24 25 -23 25 -24 -28 c-47 -56 -96 -34 -81 36 5 23 18 35 60 56 30
14 60 25 67 24 18 -3 68 12 66 20 -2 17 5 21 36 21 28 0 36 -5 46 -30z m303
-225 c-3 -8 -12 -15 -20 -15 -9 0 -13 -6 -10 -14 6 -15 -31 -26 -84 -26 -21 0
-32 -6 -38 -22 -10 -24 -27 -41 -74 -71 -15 -10 -25 -23 -21 -29 4 -6 1 -9 -7
-6 -22 7 -40 50 -28 65 12 14 2 36 -12 28 -5 -3 -6 0 -3 8 3 9 15 12 32 10 15
-3 23 -1 17 4 -18 15 -15 31 5 26 11 -3 20 -1 20 4 0 5 36 8 85 5 79 -4 85 -3
85 15 0 11 10 25 23 30 26 13 38 8 30 -12z m994 -89 c36 -39 45 -89 18 -100
-8 -3 -15 -12 -15 -21 0 -19 -23 -19 -62 1 -68 35 -95 82 -76 135 10 30 12 31
57 26 36 -4 52 -13 78 -41z m-1009 2 c7 -7 12 -28 12 -47 0 -38 -32 -81 -61
-81 -9 0 -20 -7 -23 -16 -3 -8 -10 -13 -15 -9 -5 3 -13 1 -16 -5 -10 -16 -43
31 -45 65 -4 51 -1 62 9 46 7 -12 14 -10 36 7 15 12 31 20 35 17 4 -2 15 4 25
15 21 23 27 24 43 8z m-988 -25 c0 -5 -3 -18 -6 -31 -6 -21 -7 -21 -20 -5 -13
16 -14 14 -8 -19 4 -26 2 -38 -5 -38 -19 0 -30 -43 -16 -60 7 -8 15 -24 18
-35 3 -15 5 -13 6 8 0 15 8 30 16 33 10 4 13 14 9 29 -7 30 12 41 21 12 7 -22
8 -22 11 3 3 14 7 40 10 58 6 39 17 41 33 5 9 -20 15 -23 23 -15 21 21 28 13
28 -28 0 -22 5 -40 10 -40 6 0 10 -9 10 -19 0 -11 4 -22 9 -26 5 -3 12 -19 16
-35 10 -46 27 -49 21 -3 l-6 38 16 -40 c19 -50 26 -95 14 -95 -6 0 -10 -7 -10
-15 0 -24 13 -17 37 20 13 19 32 39 44 45 19 10 20 9 15 -8 -4 -11 -2 -24 5
-28 7 -4 10 -2 7 7 -8 21 29 67 70 88 43 21 102 34 102 23 0 -5 16 -16 36 -25
l36 -18 -26 -20 c-14 -11 -66 -30 -116 -43 -50 -13 -91 -26 -90 -29 2 -44 -2
-77 -10 -77 -5 0 -11 15 -11 33 -2 30 -2 30 -6 5 -5 -33 -14 -35 -30 -9 -10
16 -18 17 -53 11 -23 -4 -55 -17 -71 -29 -27 -20 -30 -21 -61 -6 -94 46 -98
49 -98 72 0 13 -4 23 -10 23 -5 0 -7 -7 -4 -15 4 -8 2 -15 -3 -15 -15 0 -33
23 -33 42 0 10 -5 17 -12 16 -7 -2 -12 17 -14 55 -1 31 2 57 7 57 5 0 9 13 9
29 0 32 24 61 33 39 3 -7 3 7 0 31 -5 38 -4 43 10 38 10 -4 17 -2 17 3 0 6 5
10 10 10 6 0 10 -3 10 -7z m2593 -252 c-2 -6 4 -8 12 -5 10 4 13 -2 12 -23 -2
-20 -8 -29 -24 -31 -28 -4 -53 -32 -29 -32 9 0 16 5 16 12 0 6 2 9 5 6 9 -9
-36 -88 -49 -88 -18 1 -46 26 -46 42 0 8 -5 19 -12 26 -9 9 -9 12 0 12 7 0 12
-4 12 -8 0 -4 9 -8 20 -8 24 0 24 5 5 30 -22 30 -18 58 13 82 24 20 30 21 47
9 11 -7 19 -18 18 -24z m-605 -893 c10 -32 10 -45 -1 -67 -8 -16 -10 -35 -6
-47 13 -32 10 -44 -11 -44 -11 0 -20 5 -20 10 0 6 5 10 10 10 16 0 12 27 -5
34 -10 3 -15 -1 -15 -14 0 -10 -5 -22 -10 -25 -17 -10 -50 5 -50 23 0 9 -5 24
-10 32 -8 11 -10 8 -8 -15 3 -26 0 -30 -22 -30 -23 0 -25 4 -28 47 -3 51 3 60
78 110 51 34 82 27 98 -24z m-1795 -3 c15 -2 32 -3 37 -4 6 0 10 -14 10 -30 0
-15 4 -41 9 -57 5 -16 12 -43 15 -60 5 -29 2 -33 -34 -49 -22 -10 -37 -21 -35
-26 3 -4 18 -1 33 7 40 21 53 18 51 -13 -1 -16 1 -47 5 -70 11 -59 -5 -84 -52
-82 -20 1 -47 -2 -59 -6 -19 -6 -23 -4 -23 13 0 23 34 47 50 37 6 -3 10 0 10
8 0 9 -8 13 -23 10 -13 -3 -28 1 -34 9 -5 7 -16 67 -22 133 -6 66 -14 138 -18
159 l-6 39 29 -8 c16 -5 41 -9 57 -10z"/>
<path d="M104 1395 c-4 -8 -14 -15 -23 -15 -9 0 -22 -4 -30 -9 -12 -8 -12 -12
-2 -25 11 -13 11 -20 -3 -41 -10 -15 -24 -29 -32 -32 -11 -4 -14 -30 -14 -123
0 -128 7 -144 48 -107 12 11 22 15 22 9 0 -6 -4 -14 -10 -17 -14 -9 -12 -25 3
-20 7 3 13 -4 13 -19 1 -19 -5 -26 -25 -31 -29 -7 -51 -23 -51 -36 0 -5 17 -2
37 7 21 9 44 18 51 21 6 3 12 -2 12 -10 0 -8 -9 -17 -20 -20 -11 -3 -20 -9
-20 -15 0 -11 34 -8 73 7 22 9 27 8 27 -4 0 -14 -10 -20 -69 -41 -10 -3 -11
-8 -4 -15 7 -7 34 0 84 22 89 39 83 35 74 50 -6 8 -10 7 -17 -5 -7 -13 -12
-13 -28 -4 -17 11 -17 13 -2 25 19 14 14 16 -45 13 -36 -1 -43 2 -43 17 0 15
2 15 10 3 7 -11 11 -9 19 13 15 38 14 44 -9 67 -20 20 -20 20 3 20 28 0 47
-17 47 -42 0 -20 20 -25 20 -5 1 6 8 -1 17 -17 l16 -30 16 35 c13 27 23 35 48
37 27 3 33 -1 37 -20 15 -68 10 -105 -17 -114 -12 -3 -59 -24 -105 -45 -46
-22 -89 -39 -96 -39 -6 0 -16 -4 -21 -9 -6 -5 -25 -13 -44 -18 -33 -9 -61 -36
-49 -48 3 -3 18 -1 34 6 16 6 40 16 54 22 14 5 34 13 45 18 11 4 62 26 114 48
51 23 97 41 102 41 5 0 9 -11 9 -24 0 -13 3 -32 6 -41 5 -13 8 -14 15 -3 6 9
9 4 9 -14 0 -16 4 -28 9 -28 5 0 6 37 3 83 -4 45 -7 119 -7 164 0 44 -3 76 -7
70 -4 -7 -8 2 -8 19 0 18 -10 43 -25 60 -14 16 -25 32 -25 36 0 20 16 41 36
49 13 4 24 14 24 20 0 8 -5 7 -17 -2 -15 -13 -15 -12 0 18 22 42 7 50 -35 21
-43 -30 -57 -49 -50 -67 3 -9 1 -12 -6 -7 -12 7 -27 -29 -17 -44 3 -5 0 -8 -7
-5 -7 3 -30 -3 -51 -14 -22 -11 -37 -15 -34 -8 2 7 13 16 25 22 12 5 22 14 22
19 0 5 15 22 33 37 l32 28 -27 27 c-22 22 -30 25 -41 15 -12 -9 -16 -9 -20 1
-3 7 -3 -1 -1 -17 5 -26 -1 -36 -35 -68 -45 -41 -51 -44 -51 -21 0 9 -6 14
-12 11 -9 -3 -13 5 -13 24 0 26 1 27 13 12 10 -14 12 -14 12 -1 0 8 7 29 15
45 18 37 17 93 -2 93 -8 0 -16 -7 -19 -15z"/>
<path d="M1387 1374 c-12 -12 4 -24 31 -25 26 0 25 -1 -7 -12 -34 -12 -61 -40
-49 -52 3 -3 32 -9 64 -11 33 -3 66 -8 74 -11 8 -4 18 -7 22 -7 4 -1 13 -7 20
-13 15 -16 3 -29 -32 -37 -14 -2 7 -3 47 -1 41 2 81 10 95 19 12 8 27 15 32
15 5 0 16 19 24 42 16 49 15 50 -63 75 -51 16 -246 30 -258 18z"/>
<path d="M1865 1306 c-16 -11 -20 -25 -20 -66 0 -58 7 -65 94 -105 47 -21 51
-18 16 10 -26 22 -28 26 -15 39 13 14 22 14 79 0 56 -13 67 -13 79 0 11 10 11
18 3 35 -10 18 -8 21 14 27 36 9 31 18 -20 33 -25 7 -45 16 -45 20 0 3 -21 6
-47 6 -27 0 -64 3 -83 8 -25 5 -42 3 -55 -7z"/>
<path d="M1613 943 c-9 -3 -8 -11 4 -30 13 -20 14 -29 5 -44 -8 -12 -8 -19 -2
-19 5 0 10 5 10 10 0 6 5 10 11 10 7 0 9 -9 5 -24 -5 -19 -1 -26 24 -36 33
-14 103 -7 108 10 2 5 12 10 22 10 11 0 20 10 24 24 3 13 9 31 12 40 5 13 -1
16 -35 16 -23 0 -41 -4 -41 -10 0 -5 -7 -10 -15 -10 -8 0 -15 6 -15 13 0 7
-21 21 -47 30 -51 18 -51 18 -70 10z"/>
<path d="M1415 886 c-25 -25 -25 -29 -3 -88 11 -30 28 -38 28 -13 0 19 0 19
62 -9 83 -38 182 -56 312 -59 125 -2 139 3 110 38 -8 11 -13 15 -10 8 9 -18
-42 -19 -159 -4 -153 20 -240 37 -265 54 -14 9 -37 18 -50 20 -27 5 -29 29 -4
54 8 8 14 16 14 19 0 10 -12 3 -35 -20z"/>
<path d="M900 209 c0 -5 -4 -8 -9 -5 -5 3 -12 -1 -15 -10 -3 -8 -11 -12 -17
-8 -8 4 -9 3 -5 -5 4 -6 15 -10 24 -9 12 2 16 -3 14 -16 -3 -13 1 -17 12 -13
8 3 20 -1 26 -9 7 -8 9 -14 4 -14 -5 -1 2 -10 15 -20 26 -23 15 -27 -14 -6
-11 8 -25 12 -31 9 -7 -2 -18 5 -24 17 -8 15 -17 19 -31 15 -10 -4 -19 -3 -19
2 0 4 -11 16 -24 25 -23 17 -23 16 -23 -7 0 -15 5 -25 14 -25 9 0 13 -6 9 -15
-3 -8 -1 -26 4 -40 6 -16 6 -25 0 -25 -6 0 -10 -9 -10 -19 0 -11 -8 -21 -17
-23 -10 -3 97 -5 237 -7 l255 -2 -120 68 c-66 38 -148 88 -182 111 -66 45 -73
48 -73 31z"/>
</g>
</svg>
